<svg preserveAspectRatio="none" width="100%" height="100%" overflow="visible" style="display: block;" viewBox="0 0 105.628 37.1498" fill="none" xmlns="http://www.w3.org/2000/svg">
<g id="Group 196">
<path id="Vector" d="M86.5142 9.73145H82.5117V27.7865H86.5362V9.73145H86.5142Z" fill="var(--fill-0, #010101)"/>
<path id="Vector_2" fill-rule="evenodd" clip-rule="evenodd" d="M18.9126 0V16.3156H25.7301V9.73211H29.7546V16.3156V20.345V27.7872H25.7301V20.345H18.9126V27.7872H14.9102V20.345V16.3156V0H18.9126Z" fill="var(--fill-0, #010101)"/>
<path id="Vector_3" d="M37.5635 9.73145H33.5391V27.7865H37.5635V9.73145Z" fill="var(--fill-0, #010101)"/>
<path id="Vector_4" fill-rule="evenodd" clip-rule="evenodd" d="M41.1016 9.73145H45.126L48.3588 20.8727L48.9746 23.0305C49.1065 23.559 49.2385 23.8232 49.3704 23.7792C49.5244 23.8232 49.6563 23.5369 49.7663 23.0305L50.4041 20.8727L53.6148 9.73145H57.6393L52.8671 25.1663L52.7572 25.4966L52.7132 25.6287C52.5812 26.0691 52.3393 26.4874 52.0094 26.8177C51.7016 27.148 51.3057 27.4122 50.8659 27.5883C49.8763 27.8966 48.8207 27.8966 47.831 27.5883C47.3912 27.4122 46.9953 27.148 46.6875 26.8177C46.3796 26.4874 46.1377 26.0691 45.9837 25.6287L45.9397 25.4966L45.8298 25.1663L41.1016 9.73145Z" fill="var(--fill-0, #010101)"/>
<path id="Vector_5" d="M78.6221 0H74.5977V27.7872H78.6221V0Z" fill="var(--fill-0, #010101)"/>
<path id="Vector_6" fill-rule="evenodd" clip-rule="evenodd" d="M56.1211 27.8311H60.1456L61.2452 24.0219H67.5348L68.6344 27.8311H72.6369L67.8867 12.4183L67.7767 12.088L67.7327 11.9559C67.6008 11.5155 67.3589 11.0972 67.029 10.7669C66.6991 10.4366 66.3252 10.1724 65.8854 9.99625C65.4016 9.79808 64.8958 9.73203 64.368 9.75405C63.8622 9.73203 63.3344 9.8201 62.8506 9.99625C62.4107 10.1724 62.0149 10.4366 61.707 10.7669C61.3991 11.0972 61.1572 11.5155 61.0033 11.9559L60.9593 12.088L60.8493 12.4183L56.1211 27.8311ZM62.4107 20.0146L63.3784 16.7118L64.0161 14.554C64.1261 14.0256 64.258 13.7614 64.412 13.8054C64.5439 13.7614 64.6759 14.0256 64.8078 14.554L65.4236 16.7118L66.3912 20.0146H62.4107Z" fill="var(--fill-0, #010101)"/>
<path id="Vector_7" fill-rule="evenodd" clip-rule="evenodd" d="M94.4307 0V16.9541L100.259 9.68807H105.427L98.6751 18.0991L105.603 27.7651H100.434L94.4307 19.3761V27.7651H90.4062V0H94.4307Z" fill="var(--fill-0, #010101)"/>
<path id="Vector_8" fill-rule="evenodd" clip-rule="evenodd" d="M103.868 1.73945C103.868 1.78349 103.868 1.82752 103.846 1.87156C103.824 1.9156 103.802 1.93761 103.78 1.98165C103.759 2.00367 103.715 2.02569 103.671 2.04771C103.627 2.06973 103.583 2.06972 103.539 2.06972H103.121V1.45321H103.539C103.583 1.45321 103.627 1.45321 103.671 1.47523C103.715 1.49725 103.759 1.51927 103.78 1.54128C103.802 1.5633 103.846 1.60734 103.846 1.65138C103.846 1.65138 103.868 1.69541 103.868 1.73945ZM104.396 3.34679L103.868 2.33395C104 2.28991 104.11 2.20183 104.176 2.09174C104.242 1.98165 104.286 1.84954 104.286 1.71743C104.286 1.62936 104.264 1.51927 104.242 1.43119C104.198 1.34312 104.154 1.25505 104.088 1.18899C104.022 1.12294 103.934 1.0789 103.846 1.03486C103.759 0.990825 103.649 0.990826 103.561 0.990826H102.659V3.32477H103.121V2.4H103.451L103.912 3.32477H104.396V3.34679ZM103.429 0C103.868 0 104.286 0.13211 104.638 0.352294C104.99 0.594496 105.276 0.924771 105.452 1.3211C105.628 1.71743 105.672 2.1578 105.584 2.57615C105.496 2.9945 105.298 3.39083 104.99 3.69908C104.682 4.00734 104.308 4.2055 103.868 4.29358C103.451 4.38165 103.011 4.33761 102.615 4.16147C102.219 4.00734 101.867 3.7211 101.647 3.36881C101.405 3.01651 101.273 2.59817 101.273 2.1578C101.273 1.58532 101.493 1.03486 101.911 0.616514C102.307 0.242202 102.857 0.0220183 103.429 0Z" fill="var(--fill-0, #010101)"/>
<path id="Vector_9" fill-rule="evenodd" clip-rule="evenodd" d="M0.0879673 24.7704C1.5834 25.1888 2.90291 25.497 4.46432 25.497C5.3 25.497 6.20166 25.409 6.86141 25.1007C7.1693 24.9686 7.4332 24.7264 7.60913 24.4401C7.78507 24.1539 7.87303 23.8016 7.85104 23.4713C7.85104 22.0842 6.00374 21.1154 4.59627 20.3888L4.06847 20.1025C3.10083 19.5961 2.11121 19.0236 1.34149 18.275C0.923652 17.8787 0.571785 17.3943 0.351868 16.8658C0.131951 16.3374 0 15.7649 0 15.1924C0 13.3429 0.747718 12.0438 1.91328 11.1631C3.27677 10.1502 5.19004 9.75391 7.10332 9.75391C7.67511 9.75391 8.26888 9.79794 8.86266 9.84198C9.45643 9.88602 10.0502 9.97409 10.6 10.0622L11.0178 10.1282V12.4622L10.49 12.3961C10.3801 12.3741 10.0942 12.3521 9.8083 12.308C9.0166 12.1979 8.20291 12.1099 7.38921 12.0879C6.59751 12.0879 5.67386 12.1979 5.08009 12.5723C4.86017 12.7044 4.70623 12.8805 4.57428 13.1007C4.44233 13.3209 4.39834 13.5631 4.42033 13.8053C4.44233 14.1796 4.61826 14.5539 4.90415 14.8181C5.38797 15.3245 5.95975 15.7429 6.59751 16.0512C6.88341 16.2053 7.1693 16.3594 7.47718 16.5135C9.87428 17.7906 12.5353 19.1998 12.5353 22.2823C12.5353 24.1759 11.7436 25.497 10.556 26.3557C9.10457 27.4126 7.08133 27.7869 5.10208 27.7869C3.40872 27.7869 1.71535 27.5667 0.0879673 27.1264V24.7704Z" fill="var(--fill-0, #010101)"/>
<path id="Vector_10" d="M0.507812 33.6211H1.54142C2.24516 33.6211 2.72898 33.8633 2.72898 34.4578C2.72898 34.6119 2.685 34.7881 2.59703 34.9202C2.50906 35.0523 2.37711 35.1624 2.22317 35.2064V35.2284C2.42109 35.2505 2.61902 35.3385 2.72898 35.4927C2.86093 35.6468 2.9269 35.8449 2.9269 36.0431C2.9269 36.7257 2.3991 37.056 1.6074 37.056H0.507812V33.6211ZM1.45346 35.0963C2.04724 35.0963 2.28914 34.8761 2.28914 34.5238C2.28914 34.1275 2.02524 33.9734 1.47545 33.9734H0.947646V35.0963H1.45346ZM1.54142 36.7257C2.1352 36.7257 2.48707 36.5055 2.48707 36.0431C2.48707 35.6248 2.15719 35.4266 1.54142 35.4266H0.947646V36.7257H1.54142Z" fill="var(--fill-0, #010101)"/>
<path id="Vector_11" d="M4.66406 35.6468V33.6211H5.1039V35.6688C5.1039 36.5055 5.45576 36.7697 5.91759 36.7697C6.37942 36.7697 6.73128 36.5055 6.73128 35.6688V33.6211H7.14912V35.6468C7.14912 36.7697 6.62132 37.144 5.91759 37.144C5.21386 37.144 4.66406 36.7697 4.66406 35.6468Z" fill="var(--fill-0, #010101)"/>
<path id="Vector_12" d="M9.10547 33.6211H9.5453V37.078H9.10547V33.6211Z" fill="var(--fill-0, #010101)"/>
<path id="Vector_13" d="M11.5469 33.6211H11.9867V36.7037H13.5041V37.078H11.5469V33.6211Z" fill="var(--fill-0, #010101)"/>
<path id="Vector_14" d="M15.1523 33.6211H16.01C17.0656 33.6211 17.6374 34.2376 17.6374 35.3385C17.6374 36.4394 17.0656 37.078 16.032 37.078H15.1523V33.6211ZM15.988 36.7257C16.8017 36.7257 17.1976 36.2193 17.1976 35.3385C17.1976 34.4578 16.8017 33.9734 15.988 33.9734H15.5922V36.7037H15.988V36.7257Z" fill="var(--fill-0, #010101)"/>
<path id="Vector_15" d="M19.4414 33.6211H19.8812V37.078H19.4414V33.6211Z" fill="var(--fill-0, #010101)"/>
<path id="Vector_16" d="M21.8828 33.6211H22.3446L23.5982 35.8009L23.972 36.5055H23.994C23.972 36.1532 23.95 35.7789 23.95 35.4046V33.6211H24.3679V37.078H23.906L22.6525 34.8982L22.2787 34.1936H22.2567C22.2787 34.5459 22.3226 34.9202 22.3226 35.2725V37.078H21.9048L21.8828 33.6211Z" fill="var(--fill-0, #010101)"/>
<path id="Vector_17" d="M26.1484 35.3606C26.1484 34.2377 26.8082 33.5771 27.7318 33.5771C27.9078 33.5771 28.1057 33.5992 28.2816 33.6872C28.4576 33.7533 28.6115 33.8634 28.7435 34.0175L28.5015 34.3038C28.4136 34.1937 28.3036 34.1276 28.1717 34.0616C28.0397 33.9955 27.9078 33.9735 27.7758 33.9735C27.0721 33.9735 26.6323 34.5019 26.6323 35.3606C26.6323 36.2193 27.0501 36.7698 27.7758 36.7698C27.9957 36.7698 28.2157 36.7038 28.3916 36.5716V35.6689H27.6659V35.2946H28.8094V36.7478C28.6775 36.8799 28.5016 36.99 28.3256 37.056C28.1497 37.1221 27.9518 37.1661 27.7538 37.1441C26.7862 37.1441 26.1484 36.4836 26.1484 35.3606Z" fill="var(--fill-0, #010101)"/>
<path id="Vector_18" d="M32.7461 33.6211H33.1859V36.7037H34.7034V37.078H32.7681L32.7461 33.6211Z" fill="var(--fill-0, #010101)"/>
<path id="Vector_19" d="M37.0772 33.6211H37.561L38.7485 37.078H38.2867L37.9568 36.0211H36.7033L36.3734 37.078H35.9336L37.0772 33.6211ZM36.8133 35.6688H37.8469L37.6929 35.1404C37.561 34.766 37.451 34.3697 37.3411 33.9734H37.3191C37.2091 34.3697 37.0992 34.744 36.9672 35.1404L36.8133 35.6688Z" fill="var(--fill-0, #010101)"/>
<path id="Vector_20" d="M40.2891 33.6211H40.7509L42.0044 35.8009L42.3783 36.5055H42.4003C42.3783 36.1532 42.3563 35.7789 42.3563 35.4046V33.6211H42.7741V37.078H42.3123L41.0588 34.8982L40.6849 34.1936H40.6629C40.6849 34.5459 40.7289 34.9202 40.7289 35.2725V37.078H40.2891V33.6211Z" fill="var(--fill-0, #010101)"/>
<path id="Vector_21" d="M44.7539 33.6211H45.6116C46.6672 33.6211 47.239 34.2376 47.239 35.3385C47.239 36.4394 46.6672 37.078 45.6336 37.078H44.7539V33.6211ZM45.5896 36.7257C46.4033 36.7257 46.7991 36.2193 46.7991 35.3385C46.7991 34.4578 46.4033 33.9734 45.5896 33.9734H45.1937V36.7037H45.5896V36.7257Z" fill="var(--fill-0, #010101)"/>
<path id="Vector_22" d="M49.043 33.6211H49.5708L50.2305 35.4706C50.3185 35.7128 50.4065 35.955 50.4724 36.1972H50.4944C50.5824 35.955 50.6484 35.7128 50.7363 35.4706L51.3961 33.6211H51.9239V37.078H51.506V35.1844C51.506 34.8761 51.55 34.4578 51.572 34.1716H51.55L51.2861 34.9642L50.6264 36.7477H50.3405L49.6807 34.9642L49.4168 34.1716H49.3948C49.4168 34.4798 49.4388 34.8982 49.4388 35.1844V37.078H49.043V33.6211Z" fill="var(--fill-0, #010101)"/>
<path id="Vector_23" d="M54.6279 33.6211H55.1118L56.2773 37.078H55.8155L55.4856 36.0211H54.2321L53.9242 37.078H53.4844L54.6279 33.6211ZM54.364 35.6688H55.3977L55.2437 35.1404C55.1118 34.766 55.0018 34.3697 54.8918 33.9734H54.8699C54.7599 34.3697 54.6499 34.744 54.518 35.1404L54.364 35.6688Z" fill="var(--fill-0, #010101)"/>
<path id="Vector_24" d="M57.8398 33.6211H58.9174C59.6212 33.6211 60.127 33.8853 60.127 34.5899C60.149 34.8101 60.061 35.0523 59.9291 35.2284C59.7751 35.4046 59.5772 35.5367 59.3573 35.5807L60.2369 37.078H59.7531L58.9174 35.6248H58.2797V37.078H57.8398V33.6211ZM58.8515 35.2505C59.3793 35.2505 59.6872 35.0303 59.6872 34.5899C59.6872 34.1495 59.3793 33.9734 58.8515 33.9734H58.2797V35.2505H58.8515Z" fill="var(--fill-0, #010101)"/>
<path id="Vector_25" d="M61.8867 33.6211H62.3266V35.3605H62.3485L63.778 33.6211H64.2618L63.1842 34.9422L64.4378 37.078H63.9539L62.9203 35.2725L62.3266 35.9771V37.078H61.8867V33.6211Z" fill="var(--fill-0, #010101)"/>
<path id="Vector_26" d="M65.6875 36.6378L65.9514 36.3295C66.0834 36.4616 66.2153 36.5717 66.3912 36.6378C66.5452 36.7038 66.7431 36.7479 66.919 36.7699C67.3589 36.7699 67.6448 36.5497 67.6448 36.1974C67.6448 35.8451 67.4028 35.735 67.073 35.5809L66.5892 35.3607C66.2593 35.2286 65.8854 34.9644 65.8854 34.458C65.8854 33.9516 66.3472 33.5332 66.963 33.5332C67.1609 33.5332 67.3369 33.5772 67.5128 33.6433C67.6887 33.7093 67.8427 33.8194 67.9746 33.9516L67.7327 34.2378C67.6228 34.1277 67.5128 34.0616 67.3809 33.9956C67.2489 33.9295 67.095 33.9075 66.963 33.9075C66.5892 33.9075 66.3253 34.1057 66.3253 34.4139C66.3253 34.7222 66.6331 34.8763 66.897 34.9864L67.3809 35.2066C67.7767 35.3827 68.0846 35.6249 68.0846 36.1314C68.0846 36.6818 67.6448 37.1222 66.919 37.1222C66.6991 37.1222 66.4572 37.0782 66.2593 36.9901C66.0394 36.924 65.8414 36.7919 65.6875 36.6378Z" fill="var(--fill-0, #010101)"/>
<path id="Vector_27" d="M71.6484 36.6378L71.9123 36.3295C72.0443 36.4616 72.1762 36.5717 72.3522 36.6378C72.5061 36.7038 72.682 36.7479 72.88 36.7699C73.3418 36.7699 73.6057 36.5497 73.6057 36.1974C73.6057 35.8451 73.3638 35.735 73.0339 35.5809L72.5501 35.3607C72.2202 35.2286 71.8464 34.9644 71.8464 34.458C71.8464 33.9516 72.3082 33.5332 72.924 33.5332C73.1219 33.5332 73.2978 33.5772 73.4737 33.6433C73.6497 33.7093 73.8036 33.8194 73.9356 33.9516L73.6937 34.2378C73.5837 34.1277 73.4737 34.0616 73.3418 33.9956C73.2098 33.9295 73.0559 33.9075 72.924 33.9075C72.5281 33.9075 72.2862 34.1057 72.2862 34.4139C72.2862 34.7222 72.5941 34.8763 72.858 34.9864L73.3418 35.2066C73.7376 35.3827 74.0455 35.6249 74.0455 36.1314C74.0455 36.6818 73.6057 37.1222 72.88 37.1222C72.6601 37.1222 72.4181 37.0782 72.2202 36.9901C72.0003 36.924 71.8244 36.7919 71.6484 36.6378Z" fill="var(--fill-0, #010101)"/>
<path id="Vector_28" d="M75.7852 33.6211H76.225V37.078H75.7852V33.6211Z" fill="var(--fill-0, #010101)"/>
<path id="Vector_29" d="M78.2266 33.6211H78.6664L79.9199 35.8009L80.2938 36.5055H80.3158C80.2938 36.1532 80.2718 35.7789 80.2718 35.4046V33.6211H80.6896V37.078H80.2278L78.9743 34.8982L78.6004 34.1936H78.5784C78.6004 34.5459 78.6444 34.9202 78.6444 35.2725V37.078H78.2266V33.6211Z" fill="var(--fill-0, #010101)"/>
<path id="Vector_30" d="M82.4688 35.3606C82.4688 34.2377 83.1285 33.5771 84.0082 33.5771C84.1841 33.5771 84.36 33.6212 84.536 33.6872C84.6899 33.7533 84.8439 33.8634 84.9538 33.9955L84.7119 34.2817C84.6239 34.1716 84.514 34.1056 84.404 34.0395C84.2721 33.9735 84.1401 33.9515 84.0082 33.9515C83.3484 33.9515 82.9306 34.4799 82.9306 35.3386C82.9306 36.1973 83.3484 36.7478 84.0082 36.7478C84.1621 36.7478 84.3161 36.7258 84.448 36.6597C84.58 36.5937 84.7119 36.5056 84.7999 36.3735L85.0418 36.6377C84.9098 36.7918 84.7559 36.9239 84.58 37.012C84.404 37.1001 84.2061 37.1441 83.9862 37.1441C83.1065 37.1441 82.4688 36.4836 82.4688 35.3606Z" fill="var(--fill-0, #010101)"/>
<path id="Vector_31" d="M86.7344 33.6211H88.7356V33.9954H87.1742V35.0743H88.4937V35.4486H87.1742V36.7037H88.7796V37.078H86.7344V33.6211Z" fill="var(--fill-0, #010101)"/>
<path id="Vector_32" d="M92.6055 36.7259H93.3752V34.2599H92.7594V33.9736C93.0013 33.9296 93.2432 33.8636 93.4631 33.7314H93.793V36.7259H94.4968V37.0782H92.6055V36.7259Z" fill="var(--fill-0, #010101)"/>
<path id="Vector_33" d="M96.126 36.7926L96.3679 36.5284C96.4339 36.6165 96.5219 36.6825 96.6098 36.7266C96.6978 36.7706 96.8078 36.7926 96.9177 36.7926C97.4015 36.7926 97.7974 36.4183 97.8194 35.3394C97.7314 35.4715 97.6214 35.5816 97.4675 35.6477C97.3356 35.7137 97.1816 35.7578 97.0277 35.7798C96.4559 35.7798 96.082 35.4275 96.082 34.7449C96.082 34.6128 96.082 34.4807 96.148 34.3486C96.192 34.2165 96.258 34.1064 96.3679 33.9963C96.4559 33.8862 96.5658 33.8201 96.6978 33.7541C96.8297 33.688 96.9617 33.666 97.0936 33.666C97.7534 33.666 98.2592 34.1945 98.2592 35.2734C98.2592 36.6165 97.6434 37.1449 96.9837 37.1449C96.8297 37.1449 96.6758 37.1229 96.5439 37.0568C96.3459 36.9908 96.236 36.9027 96.126 36.7926ZM97.7974 34.9871C97.7314 34.3266 97.4895 33.9963 97.0497 33.9963C96.7198 33.9963 96.4559 34.2825 96.4559 34.7449C96.4559 35.2073 96.6538 35.4495 97.0717 35.4495C97.2256 35.4275 97.3575 35.3834 97.4895 35.3174C97.6214 35.2293 97.7314 35.1192 97.7974 34.9871Z" fill="var(--fill-0, #010101)"/>
<path id="Vector_34" d="M99.8004 36.7926L100.042 36.5284C100.108 36.6165 100.196 36.6825 100.284 36.7266C100.372 36.7706 100.482 36.7926 100.592 36.7926C101.076 36.7926 101.472 36.4183 101.472 35.3394C101.384 35.4715 101.274 35.5816 101.12 35.6477C100.988 35.7137 100.834 35.7578 100.68 35.7798C100.108 35.7798 99.7344 35.4275 99.7344 34.7449C99.7344 34.6128 99.7344 34.4807 99.8004 34.3486C99.8443 34.2165 99.9103 34.1064 99.9983 33.9963C100.086 33.8862 100.196 33.8201 100.328 33.7541C100.46 33.688 100.592 33.666 100.724 33.666C101.384 33.666 101.89 34.1945 101.89 35.2734C101.89 36.6165 101.274 37.1449 100.614 37.1449C100.46 37.1449 100.306 37.1229 100.174 37.0568C100.02 36.9908 99.9103 36.9027 99.8004 36.7926ZM101.472 34.9871C101.406 34.3266 101.164 33.9963 100.724 33.9963C100.394 33.9963 100.13 34.2825 100.13 34.7449C100.13 35.2073 100.328 35.4495 100.746 35.4495C100.9 35.4275 101.032 35.3834 101.164 35.3174C101.296 35.2293 101.406 35.1192 101.472 34.9871Z" fill="var(--fill-0, #010101)"/>
<path id="Vector_35" d="M103.406 36.2197C103.428 36.0215 103.494 35.8454 103.604 35.6692C103.714 35.5151 103.868 35.383 104.044 35.2949V35.2729C103.912 35.1848 103.802 35.0747 103.714 34.9426C103.626 34.8105 103.582 34.6564 103.582 34.5023C103.582 33.9959 104 33.6436 104.528 33.6436C104.66 33.6436 104.77 33.6436 104.88 33.6876C104.99 33.7316 105.1 33.7977 105.188 33.8858C105.276 33.9738 105.342 34.0619 105.386 34.194C105.429 34.3041 105.451 34.4362 105.451 34.5463C105.429 34.7004 105.386 34.8546 105.32 35.0087C105.232 35.1408 105.122 35.2729 104.99 35.361V35.383C105.298 35.5592 105.583 35.8014 105.583 36.2417C105.583 36.7481 105.144 37.1445 104.506 37.1445C103.868 37.1445 103.406 36.7481 103.406 36.2197ZM105.166 36.2197C105.166 35.7793 104.748 35.6252 104.264 35.427C104.132 35.4931 104.022 35.6032 103.934 35.7353C103.846 35.8674 103.802 35.9995 103.802 36.1536C103.802 36.2417 103.824 36.3298 103.868 36.4179C103.912 36.5059 103.956 36.572 104.022 36.6381C104.088 36.7041 104.176 36.7481 104.264 36.7702C104.352 36.7922 104.44 36.8142 104.528 36.7922C104.616 36.7922 104.704 36.7922 104.77 36.7702C104.858 36.7481 104.924 36.7041 104.99 36.6601C105.056 36.616 105.1 36.528 105.144 36.4619C105.166 36.3958 105.188 36.3078 105.166 36.2197ZM105.1 34.5683C105.1 34.4803 105.1 34.4142 105.056 34.3481C105.034 34.2821 104.99 34.216 104.924 34.15C104.88 34.0839 104.792 34.0399 104.726 34.0179C104.66 33.9959 104.572 33.9738 104.506 33.9738C104.44 33.9738 104.352 33.9738 104.286 34.0179C104.22 34.0399 104.154 34.0839 104.11 34.128C104.066 34.172 104.022 34.2381 104 34.3041C103.978 34.3702 103.956 34.4362 103.956 34.5243C103.956 34.9206 104.33 35.0968 104.726 35.2509C104.836 35.1628 104.924 35.0747 104.99 34.9647C105.056 34.8546 105.1 34.7004 105.1 34.5683Z" fill="var(--fill-0, #010101)"/>
</g>
</svg>
