<svg preserveAspectRatio="none" width="100%" height="100%" overflow="visible" style="display: block;" viewBox="0 0 50 50" fill="none" xmlns="http://www.w3.org/2000/svg">
<g id="Group 30">
<rect id="Rectangle 340" width="50" height="50" rx="5" fill="var(--fill-0, #E6E8E8)"/>
<path id="Vector" d="M32.3352 34.3538L28.6122 26.1404C28.2465 25.3365 27.9474 23.9633 27.9474 23.0883C27.9474 22.2132 28.5158 21.4973 29.2105 21.4973C29.9053 21.4973 30.4737 20.9593 30.4737 20.3041C30.4737 19.6488 29.7158 19.1108 28.7895 19.1108H21.2105C20.2842 19.1108 19.5263 19.6467 19.5263 20.3041C19.5263 20.9614 20.0947 21.4973 20.7895 21.4973C21.4842 21.4973 22.0526 22.2132 22.0526 23.0883C22.0526 23.9633 21.7535 25.3365 21.3878 26.1414L17.6648 34.3558C17.2992 35.1597 17 36.1771 17 36.6136C17 37.05 17.3789 37.768 17.8421 38.2045C18.3053 38.641 19.4421 39 20.3684 39H29.6316C30.5568 39 31.6925 38.6441 32.1579 38.2045C32.6233 37.7649 33 37.0511 33 36.6136C33 36.176 32.7008 35.1587 32.3352 34.3558V34.3538ZM26.2 16.7558C26.2 17.0564 26.3264 17.3448 26.5515 17.5573C26.7765 17.7699 27.0817 17.8894 27.4 17.8894C27.7183 17.8894 28.0235 17.7699 28.2485 17.5573C28.4736 17.3448 28.6 17.0564 28.6 16.7558C28.5999 16.4551 28.4733 16.1669 28.2481 15.9544C28.023 15.7419 27.7177 15.6226 27.3994 15.6227C27.0812 15.6229 26.776 15.7424 26.5511 15.9551C26.3261 16.1678 26.1999 16.4551 26.2 16.7558ZM22.9701 16.9306C23.117 16.9306 23.2579 16.8754 23.3618 16.7773C23.4657 16.6792 23.5241 16.546 23.5241 16.4072C23.5241 16.2684 23.4657 16.1353 23.3618 16.0372C23.2579 15.939 23.117 15.8839 22.9701 15.8839C22.8231 15.8839 22.6822 15.939 22.5783 16.0372C22.4744 16.1353 22.4161 16.2684 22.4161 16.4072C22.4161 16.546 22.4744 16.6792 22.5783 16.7773C22.6822 16.8754 22.8231 16.9306 22.9701 16.9306ZM25.0942 14.3139C25.3318 14.325 25.5693 14.2904 25.7924 14.2122C26.0154 14.1339 26.2192 14.0136 26.3915 13.8587C26.5638 13.7037 26.701 13.5172 26.7946 13.3107C26.8883 13.1041 26.9365 12.8816 26.9364 12.6569C26.9362 12.4322 26.8877 12.2098 26.7938 12.0033C26.6998 11.7968 26.5624 11.6106 26.3899 11.4558C26.2174 11.301 26.0134 11.181 25.7903 11.103C25.5672 11.025 25.3296 10.9907 25.092 11.0021C24.646 11.0284 24.2275 11.2143 23.9216 11.5219C23.6158 11.8296 23.4456 12.2359 23.4459 12.6579C23.4462 13.08 23.6169 13.4861 23.9231 13.7934C24.2294 14.1007 24.6482 14.2861 25.0942 14.3118V14.3139Z" fill="var(--fill-0, #194339)"/>
</g>
</svg>
