<svg preserveAspectRatio="none" width="100%" height="100%" overflow="visible" style="display: block;" viewBox="0 0 50 50" fill="none" xmlns="http://www.w3.org/2000/svg">
<g id="Group 30">
<rect id="Rectangle 340" width="50" height="50" rx="5" fill="var(--fill-0, #E6E8E8)"/>
<path id="Vector" d="M17.6667 32.2H27.4444M14 37H36M27.4444 37C29.7135 37 31.8897 36.115 33.4941 34.5397C35.0986 32.9644 36 30.8278 36 28.6C36 26.3722 35.0986 24.2356 33.4941 22.6603C31.8897 21.085 29.7135 20.2 27.4444 20.2H26.2222M21.3333 27.4H23.7778M25 17.8V14.2C25 13.8817 24.8712 13.5765 24.642 13.3515C24.4128 13.1264 24.1019 13 23.7778 13H21.3333C21.0092 13 20.6983 13.1264 20.4691 13.3515C20.2399 13.5765 20.1111 13.8817 20.1111 14.2V17.8M21.3333 25C20.685 25 20.0633 24.7471 19.6048 24.2971C19.1464 23.847 18.8889 23.2365 18.8889 22.6V17.8H26.2222V22.6C26.2222 23.2365 25.9647 23.847 25.5063 24.2971C25.0478 24.7471 24.4261 25 23.7778 25H21.3333Z" stroke="var(--stroke-0, #194339)" stroke-width="2.5" stroke-linecap="round" stroke-linejoin="round"/>
</g>
</svg>
