<svg preserveAspectRatio="none" width="100%" height="100%" overflow="visible" style="display: block;" viewBox="0 0 30 30" fill="none" xmlns="http://www.w3.org/2000/svg">
<g id="Group 37">
<rect id="Rectangle 340" width="30" height="30" rx="5" fill="var(--fill-0, #F0EEE5)"/>
<path id="Vector" d="M12.7982 17.3189L13.4382 16.5589L14.5882 17.5189C14.8082 17.6989 15.1182 17.6689 15.2982 17.4589L15.7982 16.8589L19.1982 17.4689L22.6982 9.11892C22.7882 8.91892 22.7282 8.67892 22.5582 8.53892L22.0482 8.11892C21.9672 8.04965 21.8661 8.00834 21.7598 8.00113C21.6535 7.99393 21.5477 8.02121 21.4582 8.07892L13.8382 12.9689L15.0382 16.2189L14.8482 16.4389L13.6982 15.4689C13.6484 15.4265 13.5908 15.3945 13.5286 15.3745C13.4663 15.3546 13.4008 15.3472 13.3357 15.3528C13.2706 15.3584 13.2072 15.3768 13.1493 15.407C13.0914 15.4373 13.04 15.4787 12.9982 15.5289L12.0382 16.6789C11.936 16.593 11.8039 16.5511 11.6708 16.5624C11.5377 16.5736 11.4146 16.6371 11.3282 16.7389L8.11819 20.5689C7.93819 20.7889 7.96819 21.0989 8.17819 21.2789L8.94819 21.9189C9.15819 22.0989 9.46819 22.0689 9.64819 21.8589L12.8582 18.0289C13.0182 17.8389 13.0082 17.5689 12.8582 17.3789L12.7982 17.3189ZM17.6682 16.1789L17.8082 13.6889L15.3782 14.2589L15.0582 13.3789L21.5882 9.18892L18.5882 16.3489L17.6682 16.1789Z" fill="var(--fill-0, #194339)"/>
</g>
</svg>
