<svg preserveAspectRatio="none" width="100%" height="100%" overflow="visible" style="display: block;" viewBox="0 0 30 30" fill="none" xmlns="http://www.w3.org/2000/svg">
<g id="Group 30">
<rect id="Rectangle 340" width="30" height="30" rx="5" fill="var(--fill-0, #F0EEE5)"/>
<path id="Vector" d="M15.2344 22.9773C15.1416 22.9622 15.0546 22.9396 14.9735 22.9094C13.1461 22.2296 11.6938 21.0768 10.6166 19.4509C9.5395 17.825 9.00062 16.0649 9 14.1707V10.289C9 9.98085 9.09131 9.70201 9.27393 9.45248C9.45655 9.20294 9.69024 9.02168 9.975 8.90869L14.9754 7.09607C15.1561 7.03202 15.331 7 15.5 7C15.669 7 15.8442 7.03202 16.0256 7.09607L21.025 8.90869C21.3098 9.02168 21.5435 9.20294 21.7261 9.45248C21.9087 9.70201 22 9.98085 22 10.289V14.1707C22 16.0649 21.4614 17.825 20.3843 19.4509C19.3071 21.0768 17.8545 22.2296 16.0265 22.9094C15.946 22.9396 15.8594 22.9622 15.7665 22.9773C15.6736 22.9924 15.5848 23 15.5 23C15.4152 23 15.3273 22.9924 15.2344 22.9773Z" fill="var(--fill-0, #194339)"/>
</g>
</svg>
