<svg preserveAspectRatio="none" width="100%" height="100%" overflow="visible" style="display: block;" viewBox="0 0 30.0004 30.0004" fill="none" xmlns="http://www.w3.org/2000/svg">
<g id="Group">
<path id="Vector" d="M1.0002 12.2002C2.0922 6.8578 6.1382 2.5822 11.3686 1.1262C11.8082 1.0044 12.0266 0.942797 12.1456 1.073C12.2646 1.2046 12.1764 1.4202 12.0028 1.8542L10.8002 4.5002M17.8002 1.0002C23.1426 2.0922 27.4182 6.1382 28.8742 11.3686C28.996 11.8082 29.0576 12.0266 28.9274 12.1456C28.7958 12.2646 28.5802 12.1764 28.1462 12.0028L25.5002 10.8002M29.0002 17.8002C27.9082 23.1426 23.8622 27.4182 18.6318 28.8742C18.1922 28.996 17.9738 29.0576 17.8548 28.9274C17.7358 28.7958 17.824 28.5802 17.9976 28.1462L19.2002 25.5002M12.2002 29.0002C6.8578 27.9082 2.5822 23.8622 1.1262 18.6318C1.0044 18.1922 0.942797 17.9738 1.073 17.8548C1.2046 17.7358 1.4202 17.824 1.8542 17.9976L4.5002 19.2002" stroke="var(--stroke-0, #194339)" stroke-width="2" stroke-linecap="round"/>
<path id="Vector_2" d="M15.1571 8.24234L10.2585 14.5311C9.90012 14.9903 10.1899 15.7099 10.7303 15.7099H13.1131C13.4617 15.7099 13.7417 16.0291 13.7417 16.4211V21.2875C13.7417 21.9427 14.4599 22.2493 14.8435 21.7579L19.7421 15.4691C20.0991 15.0099 19.8107 14.2903 19.2703 14.2903H16.8875C16.5389 14.2903 16.2589 13.9711 16.2589 13.5791V8.71274C16.2589 8.05754 15.5407 7.75094 15.1571 8.24234Z" stroke="var(--stroke-0, #194339)" stroke-width="2" stroke-linecap="round" stroke-linejoin="round"/>
</g>
</svg>
