<svg preserveAspectRatio="none" width="100%" height="100%" overflow="visible" style="display: block;" viewBox="0 0 50 50" fill="none" xmlns="http://www.w3.org/2000/svg">
<g id="Group 30">
<rect id="Rectangle 340" width="50" height="50" rx="5" fill="var(--fill-0, #E6E8E8)"/>
<path id="Vector" d="M36 13V15.4211C36 27.0748 29.433 32.3684 21.3333 32.3684H16.7414C16.5342 33.5679 16.4348 34.7832 16.4444 36H14C14 34.3501 14.1418 32.8526 14.4229 31.4823C14.1418 29.9159 14.0008 27.7902 14 25.1053C14 18.4195 19.4719 13 26.2222 13C28.6667 13 31.1111 14.2105 36 13ZM26.2222 15.4211C23.629 15.4211 21.142 16.4414 19.3083 18.2575C17.4746 20.0736 16.4444 22.5369 16.4444 25.1053C16.4444 25.5435 16.4485 25.9655 16.4567 26.3715C17.9893 23.9771 20.2346 22.085 23.1716 20.4229L24.384 22.5244C20.8958 24.5 18.5809 26.7443 17.3929 29.9474H21.3333C28.685 29.9474 33.3979 25.1379 33.5519 15.8907C31.875 16.0517 30.3167 15.9488 28.3941 15.6632C26.9886 15.4537 26.7123 15.4211 26.2222 15.4211Z" fill="var(--fill-0, #194339)"/>
</g>
</svg>
