<svg preserveAspectRatio="none" width="100%" height="100%" overflow="visible" style="display: block;" viewBox="0 0 31 25.4" fill="none" xmlns="http://www.w3.org/2000/svg">
<g id="Group">
<path id="Vector" d="M12.7 19.7H21.1M21.1 19.7V4.3C21.1 3.55739 20.805 2.8452 20.2799 2.3201C19.7548 1.795 19.0426 1.5 18.3 1.5H4.3C3.55739 1.5 2.8452 1.795 2.3201 2.3201C1.795 2.8452 1.5 3.55739 1.5 4.3V18.3C1.5 18.6713 1.6475 19.0274 1.91005 19.29C2.1726 19.5525 2.5287 19.7 2.9 19.7H4.3M21.1 19.7V7.1H23.9C25.3852 7.1 26.8096 7.69 27.8598 8.7402C28.91 9.79041 29.5 11.2148 29.5 12.7V18.3C29.5 18.6713 29.3525 19.0274 29.09 19.29C28.8274 19.5525 28.4713 19.7 28.1 19.7M21.1 19.7H28.1M28.1 19.7C28.1 20.8139 27.6575 21.8822 26.8698 22.6698C26.0822 23.4575 25.0139 23.9 23.9 23.9C22.7861 23.9 21.7178 23.4575 20.9302 22.6698C20.1425 21.8822 19.7 20.8139 19.7 19.7H28.1ZM29.5 15.5H26.7" stroke="var(--stroke-0, #194339)" stroke-width="3" stroke-linecap="round" stroke-linejoin="round"/>
<path id="Vector_2" d="M8.5 23.9C10.8196 23.9 12.7 22.0196 12.7 19.7C12.7 17.3804 10.8196 15.5 8.5 15.5C6.1804 15.5 4.3 17.3804 4.3 19.7C4.3 22.0196 6.1804 23.9 8.5 23.9Z" stroke="var(--stroke-0, #194339)" stroke-width="3" stroke-linecap="round" stroke-linejoin="round"/>
</g>
</svg>
