<svg preserveAspectRatio="none" width="100%" height="100%" overflow="visible" style="display: block;" viewBox="0 0 28.1081 28.0333" fill="none" xmlns="http://www.w3.org/2000/svg">
<g id="Group">
<path id="Vector" d="M11.0392 22.0102C11.5715 22.0102 12.0821 22.2217 12.4585 22.5981C12.8349 22.9745 13.0464 23.485 13.0464 24.0173V26.0245C13.0464 26.5568 12.8349 27.0673 12.4585 27.4437C12.0821 27.8201 11.5715 28.0316 11.0392 28.0316H2.00713C1.47481 28.0316 0.964285 27.8201 0.587875 27.4437C0.211465 27.0673 0 26.5568 0 26.0245V24.0173C0 23.485 0.211465 22.9745 0.587875 22.5981C0.964285 22.2217 1.47481 22.0102 2.00713 22.0102H11.0392ZM26.0927 22.0102C26.625 22.0102 27.1356 22.2217 27.512 22.5981C27.8884 22.9745 28.0998 23.485 28.0998 24.0173V26.0245C28.0998 26.5568 27.8884 27.0673 27.512 27.4437C27.1356 27.8201 26.625 28.0316 26.0927 28.0316H17.0606C16.5283 28.0316 16.0178 27.8201 15.6414 27.4437C15.265 27.0673 15.0535 26.5568 15.0535 26.0245V24.0173C15.0535 23.485 15.265 22.9745 15.6414 22.5981C16.0178 22.2217 16.5283 22.0102 17.0606 22.0102H26.0927ZM4.01426 13.9817C4.54659 13.9817 5.05711 14.1931 5.43352 14.5696C5.80993 14.946 6.0214 15.4565 6.0214 15.9888V17.9959C6.0214 18.5283 5.80993 19.0388 5.43352 19.4152C5.05711 19.7916 4.54659 20.0031 4.01426 20.0031H1.00357C0.737404 20.0031 0.482143 19.8973 0.293938 19.7091C0.105732 19.5209 0 19.2657 0 18.9995V14.9852C0 14.7191 0.105732 14.4638 0.293938 14.2756C0.482143 14.0874 0.737404 13.9817 1.00357 13.9817H4.01426ZM14.0499 0C14.7344 0 15.4148 0.152542 16.031 0.44759L21.8717 3.23349C23.0258 3.78344 23.7644 4.94959 23.7644 6.23014V6.89048L23.7363 7.76961C23.5294 10.9852 22.2028 14.0267 19.987 16.3662L20.0713 16.2859V17.9959C20.0713 18.5283 19.8599 19.0388 19.4834 19.4152C19.107 19.7916 18.5965 20.0031 18.0642 20.0031H10.0357C9.50333 20.0031 8.99281 19.7916 8.6164 19.4152C8.23999 19.0388 8.02853 18.5283 8.02853 17.9959V16.2839L8.11082 16.3662C5.89648 14.0261 4.57137 10.9847 4.36551 7.76961L4.33741 6.89048V6.22813C4.33741 5.02987 4.98371 3.92996 6.01738 3.34187L6.23014 3.23349L12.0709 0.44759C12.6892 0.153474 13.3652 0.000584925 14.0499 0ZM27.1043 13.9817C27.3705 13.9817 27.6257 14.0874 27.8139 14.2756C28.0021 14.4638 28.1079 14.7191 28.1079 14.9852V18.9995C28.1079 19.2657 28.0021 19.5209 27.8139 19.7091C27.6257 19.8973 27.3705 20.0031 27.1043 20.0031H24.0936C23.5613 20.0031 23.0508 19.7916 22.6744 19.4152C22.2979 19.0388 22.0865 18.5283 22.0865 17.9959V15.9888C22.0865 15.4565 22.2979 14.946 22.6744 14.5696C23.0508 14.1931 23.5613 13.9817 24.0936 13.9817H27.1043ZM9.07023 17.2854C9.16122 17.3657 9.25488 17.446 9.35123 17.5263L9.07023 17.2854ZM18.7446 17.5263C18.8423 17.446 18.9366 17.3657 19.0276 17.2854L18.7446 17.5263ZM14.0499 3.0127C13.8139 3.01343 13.5808 3.0662 13.3675 3.16725L7.52273 5.94914C7.47049 5.97545 7.42643 6.01553 7.3953 6.06505C7.36417 6.11457 7.34716 6.17166 7.3461 6.23014V6.89048C7.3461 10.5796 9.23281 14.0138 12.3459 15.9928L13.7448 16.88C13.8355 16.9383 13.9411 16.9693 14.0489 16.9693C14.1568 16.9693 14.2623 16.9383 14.353 16.88L15.752 15.9928C17.2828 15.0179 18.5433 13.6728 19.4168 12.0818C20.2903 10.4909 20.7488 8.70545 20.7497 6.89048V6.22813C20.7485 6.1702 20.7316 6.11368 20.7009 6.06456C20.6701 6.01545 20.6267 5.97556 20.5751 5.94914L14.7344 3.16525C14.5204 3.0639 14.2867 3.01113 14.0499 3.0107" fill="var(--fill-0, #194339)"/>
<path id="Vector_2" d="M11.0392 22.0118C11.5715 22.0118 12.0821 22.2233 12.4585 22.5997C12.8349 22.9761 13.0464 23.4866 13.0464 24.0189V26.0261C13.0464 26.5584 12.8349 27.0689 12.4585 27.4453C12.0821 27.8217 11.5715 28.0332 11.0392 28.0332H2.00713C1.47481 28.0332 0.964285 27.8217 0.587875 27.4453C0.211465 27.0689 0 26.5584 0 26.0261V24.0189C0 23.4866 0.211465 22.9761 0.587875 22.5997C0.964285 22.2233 1.47481 22.0118 2.00713 22.0118H11.0392ZM26.0927 22.0118C26.625 22.0118 27.1356 22.2233 27.512 22.5997C27.8884 22.9761 28.0998 23.4866 28.0998 24.0189V26.0261C28.0998 26.5584 27.8884 27.0689 27.512 27.4453C27.1356 27.8217 26.625 28.0332 26.0927 28.0332H17.0606C16.5283 28.0332 16.0178 27.8217 15.6414 27.4453C15.265 27.0689 15.0535 26.5584 15.0535 26.0261V24.0189C15.0535 23.4866 15.265 22.9761 15.6414 22.5997C16.0178 22.2233 16.5283 22.0118 17.0606 22.0118H26.0927ZM4.01426 13.9833C4.54659 13.9833 5.05711 14.1947 5.43352 14.5712C5.80993 14.9476 6.0214 15.4581 6.0214 15.9904V17.9975C6.0214 18.5299 5.80993 19.0404 5.43352 19.4168C5.05711 19.7932 4.54659 20.0047 4.01426 20.0047H1.00357C0.737404 20.0047 0.482143 19.8989 0.293938 19.7107C0.105732 19.5225 0 19.2673 0 19.0011V14.9868C0 14.7207 0.105732 14.4654 0.293938 14.2772C0.482143 14.089 0.737404 13.9833 1.00357 13.9833H4.01426Z" fill="var(--fill-0, #194339)"/>
<path id="Vector_3" fill-rule="evenodd" clip-rule="evenodd" d="M14.0502 0C14.7346 0 15.415 0.152542 16.0312 0.44759L21.872 3.23349C23.0261 3.78344 23.7647 4.94959 23.7647 6.23014V6.89048L23.7366 7.76961C23.5296 10.9852 22.2031 14.0267 19.9873 16.3662L20.0716 16.2859V17.9959C20.0716 18.5283 19.8601 19.0388 19.4837 19.4152C19.1073 19.7916 18.5968 20.0031 18.0645 20.0031H10.0359C9.5036 20.0031 8.99308 19.7916 8.61667 19.4152C8.24026 19.0388 8.02879 18.5283 8.02879 17.9959V16.2839L8.11109 16.3662C5.89674 14.0261 4.57164 10.9847 4.36578 7.76961L4.33768 6.89048V6.22813C4.33768 5.02987 4.98397 3.92996 6.01765 3.34187L6.2304 3.23349L12.0712 0.44759C12.6895 0.153474 13.3655 0.000584925 14.0502 0ZM14.0502 3.0107C13.8141 3.01142 13.5811 3.06419 13.3678 3.16525L7.523 5.94914C7.47076 5.97545 7.4267 6.01553 7.39557 6.06505C7.36444 6.11457 7.34743 6.17166 7.34637 6.23014V6.89048C7.34637 10.5796 9.23307 14.0138 12.3461 15.9928L13.7451 16.88C13.8358 16.9383 13.9414 16.9693 14.0492 16.9693C14.157 16.9693 14.2626 16.9383 14.3533 16.88L15.7522 15.9928C17.2831 15.0179 18.5435 13.6728 19.4171 12.0818C20.2906 10.4909 20.749 8.70545 20.75 6.89048V6.22813C20.7488 6.1702 20.7319 6.11368 20.7011 6.06456C20.6704 6.01545 20.6269 5.97556 20.5754 5.94914L14.7346 3.16525C14.5207 3.0639 14.2869 3.01113 14.0502 3.0107Z" fill="var(--fill-0, #194339)"/>
<path id="Vector_4" d="M27.1041 13.9833C27.3703 13.9833 27.6255 14.089 27.8137 14.2772C28.002 14.4654 28.1077 14.7207 28.1077 14.9868V19.0011C28.1077 19.2673 28.002 19.5225 27.8137 19.7107C27.6255 19.8989 27.3703 20.0047 27.1041 20.0047H24.0934C23.5611 20.0047 23.0506 19.7932 22.6742 19.4168C22.2978 19.0404 22.0863 18.5299 22.0863 17.9975V15.9904C22.0863 15.4581 22.2978 14.9476 22.6742 14.5712C23.0506 14.1947 23.5611 13.9833 24.0934 13.9833H27.1041Z" fill="var(--fill-0, #194339)"/>
</g>
</svg>
