<svg preserveAspectRatio="none" width="100%" height="100%" overflow="visible" style="display: block;" viewBox="0 0 50 50" fill="none" xmlns="http://www.w3.org/2000/svg">
<g id="Group 30">
<rect id="Rectangle 340" width="50" height="50" rx="5" fill="var(--fill-0, #E6E8E8)"/>
<path id="Vector" d="M13.1818 16.4817L14.6945 15L34.4545 34.5067L32.9536 36L29.3136 32.4067C27.9545 32.85 26.5127 33.0833 25 33.0833C19.0909 33.0833 14.0445 29.455 12 24.3333C12.8155 22.28 14.1155 20.4717 15.77 19.0367L13.1818 16.4817ZM25 20.8333C25.9403 20.8333 26.8421 21.2021 27.507 21.8585C28.1719 22.5148 28.5455 23.4051 28.5455 24.3333C28.5461 24.7307 28.4781 25.1252 28.3445 25.5L23.8182 21.0317C24.1979 20.8998 24.5975 20.8327 25 20.8333ZM25 15.5833C30.9091 15.5833 35.9555 19.2117 38 24.3333C37.0349 26.7518 35.3959 28.851 33.2727 30.3883L31.5945 28.72C33.2289 27.604 34.5471 26.094 35.4236 24.3333C34.4683 22.4082 32.985 20.7862 31.1423 19.6519C29.2997 18.5176 27.1716 17.9164 25 17.9167C23.7118 17.9167 22.4473 18.1267 21.2655 18.5L19.4455 16.715C21.1473 15.9917 23.0264 15.5833 25 15.5833ZM14.5764 24.3333C15.5317 26.2585 17.015 27.8804 18.8577 29.0148C20.7003 30.1491 22.8284 30.7503 25 30.75C25.8155 30.75 26.6191 30.6683 27.3636 30.505L24.6691 27.8333C23.8467 27.7463 23.0793 27.384 22.4945 26.8067C21.9097 26.2294 21.5427 25.4718 21.4545 24.66L17.4364 20.6817C16.2664 21.6733 15.2855 22.91 14.5764 24.3333Z" fill="var(--fill-0, #194339)"/>
</g>
</svg>
