<svg preserveAspectRatio="none" width="100%" height="100%" overflow="visible" style="display: block;" viewBox="0 0 37 43" fill="none" xmlns="http://www.w3.org/2000/svg">
<path id="Vector" d="M17.7441 42.9391C17.4799 42.8985 17.2323 42.8376 17.0015 42.7564C11.8004 40.9297 7.66693 37.8314 4.60121 33.4618C1.5355 29.0921 0.0017619 24.362 0 19.2713V8.83919C0 8.01105 0.259881 7.26166 0.779643 6.59103C1.2994 5.9204 1.96452 5.43325 2.775 5.1296L17.0068 0.258185C17.5213 0.0860616 18.019 0 18.5 0C18.981 0 19.4796 0.0860616 19.9959 0.258185L34.225 5.1296C35.0355 5.43325 35.7006 5.9204 36.2204 6.59103C36.7401 7.26166 37 8.01105 37 8.83919V19.2713C37 24.362 35.4671 29.0921 32.4014 33.4618C29.3357 37.8314 25.2014 40.9297 19.9985 42.7564C19.7695 42.8376 19.5228 42.8985 19.2585 42.9391C18.9942 42.9797 18.7414 43 18.5 43C18.2586 43 18.0084 42.9797 17.7441 42.9391Z" fill="var(--fill-0, #194339)"/>
</svg>
