<svg preserveAspectRatio="none" width="100%" height="100%" overflow="visible" style="display: block;" viewBox="0 0 31 34" fill="none" xmlns="http://www.w3.org/2000/svg">
<path id="Vector" d="M10.8334 19.325V12.35C10.8334 10.8884 10.8334 10.1583 10.3776 9.70417C9.9218 9.25002 9.18913 9.25002 7.72224 9.25002H4.61113C3.14424 9.25002 2.41158 9.25002 1.9558 9.70417C1.50002 10.1583 1.50002 10.8884 1.50002 12.35V26.3C1.50002 29.2233 1.50002 30.6834 2.41158 31.5917C3.32313 32.5 4.78847 32.5 7.72224 32.5H10.8334M10.8334 19.325L15.9931 16.7551C17.7042 15.9026 18.5598 15.4748 19.224 15.7585C19.3659 15.8187 19.498 15.8997 19.616 15.9987C20.1667 16.4637 20.1667 17.417 20.1667 19.325L24.9982 16.9179C27.0158 15.9135 28.0238 15.4097 28.7627 15.8639C29.5016 16.318 29.5 17.4433 29.5 19.6924V26.3C29.5 29.2233 29.5 30.6834 28.5885 31.5917C27.6769 32.5 26.2116 32.5 23.2778 32.5H10.8334M10.8334 19.325V32.5M1.50002 13.9H10.8334M17.0556 1.50002H9.2778C7.81091 1.50002 7.07824 1.50002 6.62247 1.95417C6.16669 2.40832 6.16669 3.13837 6.16669 4.60002M21.7222 1.50002H23.2778M13.9445 6.15002H23.2778" stroke="var(--stroke-0, #194339)" stroke-width="3" stroke-linecap="round" stroke-linejoin="round"/>
</svg>
