<svg preserveAspectRatio="none" width="100%" height="100%" overflow="visible" style="display: block;" viewBox="0 0 30 30" fill="none" xmlns="http://www.w3.org/2000/svg">
<g id="Group 36">
<rect id="Rectangle 340" width="30" height="30" rx="5" fill="var(--fill-0, #F0EEE5)"/>
<path id="Vector" d="M7 8.69999C7 8.24913 7.18153 7.81673 7.50464 7.49792C7.82776 7.17911 8.266 7 8.72296 7H15.0067C15.4637 7 15.9019 7.17911 16.225 7.49792C16.5481 7.81673 16.7297 8.24913 16.7297 8.69999V13H18.2499C18.7069 13 19.1451 13.1791 19.4682 13.4979C19.7914 13.8167 19.9729 14.2491 19.9729 14.7V17.6348C19.7365 17.5796 19.4893 17.5899 19.2585 17.6646C19.0277 17.7393 18.8223 17.8755 18.6651 18.0581C18.5078 18.2408 18.4047 18.4627 18.3672 18.6995C18.3297 18.9363 18.3593 19.1787 18.4526 19.3999H16.6283C16.7451 19.1222 16.7606 18.8131 16.6724 18.5252C16.5841 18.2374 16.3975 17.9886 16.1443 17.8213C15.891 17.654 15.5868 17.5784 15.2835 17.6075C14.9801 17.6366 14.6964 17.7685 14.4805 17.9808L12.6562 19.7807C12.4091 20.0245 12.2703 20.3552 12.2703 20.6999C12.2703 21.0447 12.4091 21.3753 12.6562 21.6191L14.0556 22.9999H7.50675C7.22703 22.9999 7 22.7759 7 22.4999V8.69999ZM11.054 11C11.054 10.7878 10.9686 10.5843 10.8165 10.4343C10.6645 10.2843 10.4583 10.2 10.2432 10.2C10.0282 10.2 9.82195 10.2843 9.6699 10.4343C9.51784 10.5843 9.43242 10.7878 9.43242 11C9.43242 11.2122 9.51784 11.4156 9.6699 11.5657C9.82195 11.7157 10.0282 11.8 10.2432 11.8C10.4583 11.8 10.6645 11.7157 10.8165 11.5657C10.9686 11.4156 11.054 11.2122 11.054 11ZM10.2432 14.6C10.4583 14.6 10.6645 14.5157 10.8165 14.3657C10.9686 14.2156 11.054 14.0121 11.054 13.8C11.054 13.5878 10.9686 13.3843 10.8165 13.2343C10.6645 13.0843 10.4583 13 10.2432 13C10.0282 13 9.82195 13.0843 9.6699 13.2343C9.51784 13.3843 9.43242 13.5878 9.43242 13.8C9.43242 14.0121 9.51784 14.2156 9.6699 14.3657C9.82195 14.5157 10.0282 14.6 10.2432 14.6ZM11.054 16.6C11.054 16.3878 10.9686 16.1843 10.8165 16.0343C10.6645 15.8842 10.4583 15.8 10.2432 15.8C10.0282 15.8 9.82195 15.8842 9.6699 16.0343C9.51784 16.1843 9.43242 16.3878 9.43242 16.6C9.43242 16.8121 9.51784 17.0156 9.6699 17.1656C9.82195 17.3157 10.0282 17.4 10.2432 17.4C10.4583 17.4 10.6645 17.3157 10.8165 17.1656C10.9686 17.0156 11.054 16.8121 11.054 16.6ZM13.4864 11.8C13.7015 11.8 13.9077 11.7157 14.0598 11.5657C14.2118 11.4156 14.2973 11.2122 14.2973 11C14.2973 10.7878 14.2118 10.5843 14.0598 10.4343C13.9077 10.2843 13.7015 10.2 13.4864 10.2C13.2714 10.2 13.0652 10.2843 12.9131 10.4343C12.7611 10.5843 12.6756 10.7878 12.6756 11C12.6756 11.2122 12.7611 11.4156 12.9131 11.5657C13.0652 11.7157 13.2714 11.8 13.4864 11.8ZM14.2973 13.8C14.2973 13.5878 14.2118 13.3843 14.0598 13.2343C13.9077 13.0843 13.7015 13 13.4864 13C13.2714 13 13.0652 13.0843 12.9131 13.2343C12.7611 13.3843 12.6756 13.5878 12.6756 13.8C12.6756 14.0121 12.7611 14.2156 12.9131 14.3657C13.0652 14.5157 13.2714 14.6 13.4864 14.6C13.7015 14.6 13.9077 14.5157 14.0598 14.3657C14.2118 14.2156 14.2973 14.0121 14.2973 13.8ZM13.4864 17.4C13.7015 17.4 13.9077 17.3157 14.0598 17.1656C14.2118 17.0156 14.2973 16.8121 14.2973 16.6C14.2973 16.3878 14.2118 16.1843 14.0598 16.0343C13.9077 15.8842 13.7015 15.8 13.4864 15.8C13.2714 15.8 13.0652 15.8842 12.9131 16.0343C12.7611 16.1843 12.6756 16.3878 12.6756 16.6C12.6756 16.8121 12.7611 17.0156 12.9131 17.1656C13.0652 17.3157 13.2714 17.4 13.4864 17.4ZM15.7705 19.2535C15.8655 19.1598 15.9189 19.0326 15.9189 18.9C15.9189 18.7673 15.8655 18.6401 15.7705 18.5464C15.6754 18.4526 15.5465 18.3999 15.4121 18.3999C15.2777 18.3999 15.1488 18.4526 15.0537 18.5464L13.2294 20.3463C13.1823 20.3928 13.145 20.4479 13.1195 20.5086C13.0941 20.5692 13.0809 20.6343 13.0809 20.6999C13.0809 20.7656 13.0941 20.8306 13.1195 20.8913C13.145 20.952 13.1823 21.0071 13.2294 21.0535L15.0537 22.8535C15.1488 22.9473 15.2777 23 15.4121 23C15.5465 23 15.6754 22.9473 15.7705 22.8535C15.8655 22.7598 15.9189 22.6326 15.9189 22.4999C15.9189 22.3673 15.8655 22.2401 15.7705 22.1463L14.8113 21.1999H20.2696L19.3105 22.1463C19.2154 22.2401 19.162 22.3673 19.162 22.4999C19.162 22.6326 19.2154 22.7598 19.3105 22.8535C19.4055 22.9473 19.5344 23 19.6688 23C19.8033 23 19.9322 22.9473 20.0272 22.8535L21.8515 21.0535C21.8986 21.0071 21.9359 20.952 21.9614 20.8913C21.9869 20.8306 22 20.7656 22 20.6999C22 20.6343 21.9869 20.5692 21.9614 20.5086C21.9359 20.4479 21.8986 20.3928 21.8515 20.3463L20.0272 18.5464C19.9322 18.4526 19.8033 18.3999 19.6688 18.3999C19.5344 18.3999 19.4055 18.4526 19.3105 18.5464C19.2154 18.6401 19.162 18.7673 19.162 18.9C19.162 19.0326 19.2154 19.1598 19.3105 19.2535L20.2696 20.1999H14.8113L15.7705 19.2535Z" fill="var(--fill-0, #194339)"/>
</g>
</svg>
