<svg preserveAspectRatio="none" width="100%" height="100%" overflow="visible" style="display: block;" viewBox="0 0 50 50" fill="none" xmlns="http://www.w3.org/2000/svg">
<g id="Group 30">
<rect id="Rectangle 340" width="50" height="50" rx="5" fill="var(--fill-0, #E6E8E8)"/>
<path id="Vector" d="M20.1381 28.9331L21.2236 27.6336L23.1741 29.275C23.5473 29.5828 24.073 29.5315 24.3783 29.1724L25.2264 28.1466L30.9931 29.1895L36.9294 14.9131C37.082 14.5711 36.9802 14.1608 36.6919 13.9214L35.8269 13.2033C35.6896 13.0849 35.5181 13.0143 35.3378 13.0019C35.1575 12.9896 34.9781 13.0363 34.8262 13.1349L21.9021 21.4956L23.9374 27.0523L23.6151 27.4285L21.6646 25.77C21.5802 25.6976 21.4825 25.6427 21.3769 25.6086C21.2714 25.5745 21.1602 25.5619 21.0497 25.5714C20.9393 25.581 20.8319 25.6125 20.7336 25.6642C20.6354 25.7159 20.5483 25.7867 20.4773 25.8726L18.8491 27.8388C18.6757 27.6919 18.4517 27.6203 18.226 27.6395C18.0003 27.6587 17.7914 27.7673 17.6449 27.9414L12.2005 34.4898C11.8952 34.8659 11.946 35.3959 12.3022 35.7037L13.6082 36.7979C13.9644 37.1057 14.4902 37.0544 14.7955 36.6953L20.2399 30.147C20.5113 29.8221 20.4943 29.3605 20.2399 29.0356L20.1381 28.9331ZM28.3981 26.9839L28.6355 22.7267L24.514 23.7012L23.9713 22.1966L35.0467 15.0328L29.9585 27.2746L28.3981 26.9839Z" fill="var(--fill-0, #194339)"/>
</g>
</svg>
