<svg preserveAspectRatio="none" width="100%" height="100%" overflow="visible" style="display: block;" viewBox="0 0 50 50" fill="none" xmlns="http://www.w3.org/2000/svg">
<g id="Group 30">
<rect id="Rectangle 340" width="50" height="50" rx="5" fill="var(--fill-0, #E6E8E8)"/>
<path id="Vector" d="M36.3671 38L30.5171 32.15C29.8021 32.8905 28.9451 33.4794 27.9975 33.8814C27.0498 34.2835 26.0308 34.4904 25.0014 34.49C20.7457 34.49 17.2871 31.0314 17.2871 26.7757C17.2871 25.0657 18.1486 22.9571 19.28 20.9129L11 12.6329L12.6457 11L38 36.3671L36.3671 38ZM32.7157 26.7757C32.7157 21.6329 25.0014 12.9543 25.0014 12.9543C25.0014 12.9543 23.51 14.6257 21.8514 16.94L32.6514 27.74C32.7157 27.4186 32.7157 27.0971 32.7157 26.7757Z" fill="var(--fill-0, #194339)"/>
</g>
</svg>
