<svg preserveAspectRatio="none" width="100%" height="100%" overflow="visible" style="display: block;" viewBox="0 0 30 30" fill="none" xmlns="http://www.w3.org/2000/svg">
<g id="Group 30">
<rect id="Rectangle 340" width="30" height="30" rx="5" fill="var(--fill-0, #F0EEE5)"/>
<path id="Vector" d="M15.3565 8.42451C13.8418 6.91457 11.5734 6.60658 9.74972 7.49301L12.4853 10.2199C12.7792 10.5129 12.7792 10.9861 12.4853 11.2791L11.2871 12.4735C10.9932 12.774 10.5184 12.774 10.2245 12.4735L7.48892 9.74664C6.60721 11.5721 6.91619 13.8182 8.43092 15.3281C9.09806 15.9907 9.94239 16.4478 10.8631 16.6449C11.7838 16.8421 12.742 16.7709 13.6232 16.4399L19.6219 22.4195C19.8049 22.6035 20.0227 22.7495 20.2626 22.8491C20.5025 22.9487 20.7599 23 21.0198 23C21.2797 23 21.537 22.9487 21.777 22.8491C22.0169 22.7495 22.2346 22.6035 22.4177 22.4195C22.6022 22.2371 22.7487 22.02 22.8486 21.7808C22.9485 21.5417 23 21.2851 23 21.0261C23 20.767 22.9485 20.5104 22.8486 20.2713C22.7487 20.0321 22.6022 19.815 22.4177 19.6326L16.4492 13.6755C17.1425 11.9176 16.7808 9.84429 15.3565 8.42451Z" fill="var(--fill-0, #194339)"/>
</g>
</svg>
