<svg preserveAspectRatio="none" width="100%" height="100%" overflow="visible" style="display: block;" viewBox="0 0 50 50" fill="none" xmlns="http://www.w3.org/2000/svg">
<g id="Group 30">
<rect id="Rectangle 340" width="50" height="50" rx="5" fill="var(--fill-0, #E6E8E8)"/>
<path id="Vector" d="M25.4902 15.9587C23.4074 13.8825 20.2885 13.459 17.7809 14.6779L21.5423 18.4274C21.9464 18.8302 21.9464 19.4809 21.5423 19.8838L19.8947 21.5261C19.4906 21.9393 18.8378 21.9393 18.4337 21.5261L14.6723 17.7766C13.4599 20.2866 13.8848 23.375 15.9675 25.4512C16.8848 26.3622 18.0458 26.9907 19.3118 27.2618C20.5777 27.5329 21.8952 27.435 23.1069 26.9799L31.355 35.2019C31.6067 35.4548 31.9062 35.6555 32.2361 35.7925C32.566 35.9295 32.9198 36 33.2772 36C33.6346 36 33.9884 35.9295 34.3183 35.7925C34.6482 35.6555 34.9476 35.4548 35.1993 35.2019C35.453 34.951 35.6544 34.6525 35.7918 34.3236C35.9292 33.9948 36 33.6421 36 33.2858C36 32.9296 35.9292 32.5769 35.7918 32.248C35.6544 31.9192 35.453 31.6207 35.1993 31.3698L26.9927 23.1788C27.946 20.7617 27.4486 17.9109 25.4902 15.9587Z" fill="var(--fill-0, #194339)"/>
</g>
</svg>
