<svg preserveAspectRatio="none" width="100%" height="100%" overflow="visible" style="display: block;" viewBox="0 0 50 50" fill="none" xmlns="http://www.w3.org/2000/svg">
<g id="Group 30">
<rect id="Rectangle 340" width="50" height="50" rx="5" fill="var(--fill-0, #E6E8E8)"/>
<path id="Vector" d="M25.3385 13.0001C25.1937 13.0003 25.0508 13.0334 24.9201 13.0969C24.7894 13.1604 24.6742 13.2528 24.5827 13.3673L24.5071 13.4245C23.0902 12.985 21.5832 12.9449 20.1459 13.3087C18.7085 13.6724 17.3942 14.4264 16.3424 15.4906C15.4109 16.4333 14.7181 17.5933 14.324 18.8705C13.9299 20.1477 13.8463 21.5036 14.0803 22.8212L14.0608 22.8412L12.8125 24.1064C12.555 24.3673 12.3507 24.6777 12.2112 25.0196C12.0718 25.3615 12 25.7283 12 26.0987C12 26.4691 12.0718 26.8358 12.2112 27.1777C12.3507 27.5196 12.555 27.83 12.8125 28.091C13.1159 28.3981 13.4844 28.6299 13.8894 28.7685C14.2945 28.9072 14.7254 28.9489 15.1488 28.8905C15.2997 29.4516 15.6162 29.9517 16.0552 30.3228C16.4941 30.6938 17.0343 30.9179 17.6024 30.9646C17.6608 31.6468 17.9591 32.2844 18.4423 32.7593C18.9255 33.2343 19.5607 33.5146 20.2306 33.5483C20.2645 34.2215 20.5342 34.884 21.0411 35.3976C22.0314 36.4034 23.5846 36.4898 24.6726 35.6597L25.1769 36.1705C25.7016 36.7019 26.4107 37 27.1497 37C27.8887 37 28.5977 36.7019 29.1224 36.1705C29.6046 35.6796 29.8743 35.0556 29.9303 34.4171C30.5804 34.3603 31.19 34.0715 31.6523 33.6015C32.1146 33.1315 32.3999 32.5102 32.4582 31.8467C33.0308 31.7926 33.5729 31.5582 34.0094 31.1759C34.4459 30.7936 34.7553 30.2823 34.8949 29.7127C35.3119 29.7633 35.7348 29.7171 36.1319 29.5775C36.529 29.4379 36.8901 29.2085 37.1882 28.9065C37.4454 28.6456 37.6496 28.3353 37.7889 27.9935C37.9283 27.6517 38 27.2851 38 26.9149C38 26.5446 37.9283 26.1781 37.7889 25.8363C37.6496 25.4944 37.4454 25.1842 37.1882 24.9232L36.1028 23.8203L36.3269 22.9343C36.812 21.0061 36.5678 18.9621 35.6428 17.2095C34.97 15.9372 33.9724 14.8745 32.7558 14.1343C31.5392 13.3941 30.149 13.004 28.7328 13.0054H26.6389C26.5495 13.0013 26.46 12.9995 26.3705 13.0001H25.3385ZM29.1498 19.579L33.6635 24.1569L33.6674 24.1636L33.6856 24.1809L35.8031 26.3295C35.8787 26.4062 35.9387 26.4974 35.9797 26.5978C36.0207 26.6983 36.0418 26.806 36.0418 26.9149C36.0418 27.0237 36.0207 27.1314 35.9797 27.2319C35.9387 27.3324 35.8787 27.4236 35.8031 27.5003C35.6494 27.6554 35.442 27.7425 35.2258 27.7425C35.0097 27.7425 34.8023 27.6554 34.6486 27.5003L32.5312 25.3516C32.3467 25.1651 32.0976 25.0605 31.838 25.0605C31.5783 25.0605 31.3292 25.1651 31.1447 25.3516L31.1239 25.3743C31.0329 25.4663 30.9607 25.5758 30.9114 25.6965C30.8622 25.8172 30.8368 25.9466 30.8368 26.0774C30.8368 26.2081 30.8622 26.3376 30.9114 26.4583C30.9607 26.5789 31.0329 26.6885 31.1239 26.7805L32.7735 28.4542C32.8496 28.5309 32.9099 28.6222 32.9511 28.7229C32.9923 28.8237 33.0136 28.9317 33.0136 29.0409C33.0136 29.15 32.9923 29.2581 32.9511 29.3588C32.9099 29.4595 32.8496 29.5509 32.7735 29.6276C32.6341 29.7686 32.4497 29.8539 32.2539 29.868C32.0582 29.8822 31.8639 29.8243 31.7064 29.7047C31.5167 29.56 31.2823 29.4899 31.0461 29.5073C30.8099 29.5246 30.5877 29.6283 30.4203 29.7992C30.2533 29.9696 30.153 30.1963 30.1381 30.4368C30.1233 30.6774 30.1949 30.9152 30.3395 31.1057C30.4597 31.265 30.5187 31.4637 30.5055 31.6643C30.4923 31.865 30.4078 32.0538 30.2678 32.1953C30.1262 32.3386 29.9383 32.4243 29.7393 32.4366C29.5403 32.4488 29.3437 32.3867 29.1863 32.2618C28.9979 32.1118 28.7626 32.0367 28.5241 32.0507C28.2856 32.0646 28.0601 32.1666 27.8898 32.3376C27.72 32.5082 27.6177 32.7366 27.6023 32.9793C27.5869 33.2219 27.6596 33.4619 27.8064 33.6534C27.9295 33.8152 27.9903 34.0174 27.9774 34.2218C27.9644 34.4262 27.8785 34.6187 27.736 34.763C27.5799 34.9206 27.3692 35.009 27.1497 35.009C26.9301 35.009 26.7194 34.9206 26.5633 34.763L26.0786 34.272L26.2154 34.1323C26.4727 33.8714 26.6768 33.5611 26.8162 33.2193C26.9555 32.8775 27.0272 32.511 27.0272 32.1407C27.0272 31.7705 26.9555 31.4039 26.8162 31.0621C26.6768 30.7203 26.4727 30.41 26.2154 30.1491C25.7281 29.6538 25.078 29.3608 24.3912 29.3269C24.3537 28.6435 24.0752 27.997 23.6072 27.5069C23.1392 27.0168 22.5133 26.7163 21.8451 26.6608C21.7921 25.9943 21.5069 25.3693 21.0411 24.8993C20.7377 24.5922 20.3692 24.3604 19.9641 24.2217C19.559 24.0831 19.1282 24.0413 18.7048 24.0997C18.54 23.487 18.1783 22.9486 17.6778 22.571C17.1773 22.1934 16.567 21.9985 15.9449 22.0176C15.8455 21.0818 15.9543 20.1352 16.2632 19.2483C16.572 18.3614 17.073 17.5572 17.7288 16.8955C18.3396 16.2763 19.0698 15.7933 19.873 15.4773C20.6763 15.1613 21.535 15.019 22.3949 15.0596L20.4443 16.5669C20.1273 16.8119 19.8609 17.1184 19.6604 17.4689C19.4599 17.8194 19.3292 18.2069 19.2759 18.6091C19.2226 19.0113 19.2478 19.4203 19.3499 19.8126C19.452 20.2049 19.6291 20.5726 19.871 20.8948C20.3594 21.5449 21.0799 21.9714 21.8752 22.0813C22.6705 22.1913 23.476 21.9756 24.1162 21.4815L26.5776 19.5777L29.1498 19.579ZM21.6235 18.1594L25.7137 14.9957H26.3705C26.4517 14.9954 26.533 14.9976 26.6141 15.0024H28.7328C29.7959 15.0009 30.8395 15.2932 31.753 15.8484C32.6665 16.4035 33.4158 17.2007 33.9215 18.1554C34.5665 19.3794 34.7685 20.787 34.5 22.14L30.316 17.888C30.225 17.7918 30.1158 17.7152 29.9952 17.6628C29.8745 17.6105 29.7448 17.5835 29.6137 17.5834H26.2506C26.0375 17.5833 25.8302 17.6543 25.6603 17.7856L22.937 19.8916C22.7086 20.0676 22.4214 20.1444 22.1378 20.1053C21.8543 20.0662 21.5973 19.9143 21.4229 19.6828C21.3377 19.5694 21.2753 19.4399 21.2393 19.3019C21.2033 19.1638 21.1945 19.0198 21.2132 18.8782C21.232 18.7366 21.278 18.6002 21.3487 18.4768C21.4193 18.3534 21.5132 18.2456 21.6248 18.1594M17.2545 28.7415C17.1788 28.6649 17.1188 28.5737 17.0778 28.4732C17.0369 28.3727 17.0158 28.265 17.0158 28.1561C17.0158 28.0473 17.0369 27.9396 17.0778 27.8391C17.1188 27.7386 17.1788 27.6474 17.2545 27.5708L18.5015 26.3069C18.6552 26.1517 18.8626 26.0647 19.0787 26.0647C19.2949 26.0647 19.5023 26.1517 19.656 26.3069C19.8066 26.4598 19.8921 26.6672 19.8941 26.8841C19.896 27.101 19.8142 27.3099 19.6664 27.4657L19.656 27.4776L18.409 28.7415L18.3972 28.7535C18.2427 28.9037 18.0371 28.9865 17.8238 28.9845C17.6105 28.9826 17.4063 28.8959 17.2545 28.7429M16.6147 24.262C16.7618 24.4181 16.8429 24.6269 16.8404 24.8435C16.838 25.06 16.7522 25.2669 16.6017 25.4195L15.3547 26.686C15.201 26.8412 14.9936 26.9283 14.7774 26.9283C14.5613 26.9283 14.3539 26.8412 14.2002 26.686C14.1246 26.6094 14.0645 26.5182 14.0236 26.4177C13.9826 26.3172 13.9615 26.2095 13.9615 26.1007C13.9615 25.9918 13.9826 25.8841 14.0236 25.7836C14.0645 25.6831 14.1246 25.5919 14.2002 25.5153L15.4485 24.2501C15.6022 24.0949 15.8096 24.0078 16.0257 24.0078C16.2419 24.0078 16.4493 24.0949 16.603 24.2501L16.6147 24.262ZM23.5833 33.9927C23.4296 34.1478 23.2222 34.2349 23.006 34.2349C22.7899 34.2349 22.5825 34.1478 22.4288 33.9927C22.3532 33.916 22.2931 33.8248 22.2522 33.7243C22.2112 33.6239 22.1901 33.5161 22.1901 33.4073C22.1901 33.2984 22.2112 33.1907 22.2522 33.0902C22.2931 32.9898 22.3532 32.8986 22.4288 32.8219L23.6758 31.5567C23.8295 31.4015 24.0369 31.3145 24.253 31.3145C24.4692 31.3145 24.6766 31.4015 24.8303 31.5567C24.9059 31.6333 24.966 31.7245 25.0069 31.825C25.0479 31.9255 25.069 32.0332 25.069 32.1421C25.069 32.2509 25.0479 32.3586 25.0069 32.4591C24.966 32.5596 24.9059 32.6508 24.8303 32.7274L23.5833 33.9927ZM20.9499 31.3212C20.7962 31.4764 20.5888 31.5634 20.3726 31.5634C20.1565 31.5634 19.9491 31.4764 19.7954 31.3212C19.6442 31.1683 19.5582 30.9608 19.556 30.7436C19.5538 30.5264 19.6356 30.3171 19.7837 30.1611L19.7954 30.1504L21.0424 28.8852L21.0528 28.8732C21.2075 28.7228 21.4136 28.64 21.6272 28.6422C21.8408 28.6444 22.0452 28.7316 22.1969 28.8852C22.2725 28.9619 22.3325 29.0531 22.3735 29.1535C22.4145 29.254 22.4356 29.3618 22.4356 29.4706C22.4356 29.5794 22.4145 29.6872 22.3735 29.7876C22.3325 29.8881 22.2725 29.9793 22.1969 30.056L20.9499 31.3212Z" fill="var(--fill-0, #194339)"/>
</g>
</svg>
