<svg preserveAspectRatio="none" width="100%" height="100%" overflow="visible" style="display: block;" viewBox="0 0 20 35" fill="none" xmlns="http://www.w3.org/2000/svg">
<path id="Vector" d="M19.169 29.1922L14.5152 18.9255C14.0582 17.9207 13.6842 16.2041 13.6842 15.1103C13.6842 14.0165 14.3947 13.1216 15.2632 13.1216C16.1316 13.1216 16.8421 12.4491 16.8421 11.6301C16.8421 10.811 15.8947 10.1385 14.7368 10.1385H5.26316C4.10526 10.1385 3.1579 10.8084 3.1579 11.6301C3.1579 12.4517 3.86842 13.1216 4.73684 13.1216C5.60526 13.1216 6.31579 14.0165 6.31579 15.1103C6.31579 16.2041 5.94183 17.9207 5.48476 18.9268L0.831025 29.1948C0.373962 30.1996 0 31.4714 0 32.0169C0 32.5625 0.473685 33.4601 1.05263 34.0056C1.63158 34.5512 3.05263 35 4.21053 35H15.7895C16.946 35 18.3657 34.5552 18.9474 34.0056C19.5291 33.4561 20 32.5638 20 32.0169C20 31.47 19.626 30.1983 19.169 29.1948V29.1922ZM11.5 7.19474C11.5 7.57054 11.658 7.93094 11.9393 8.19667C12.2206 8.4624 12.6022 8.61169 13 8.61169C13.3978 8.61169 13.7794 8.4624 14.0607 8.19667C14.342 7.93094 14.5 7.57054 14.5 7.19474C14.4998 6.81894 14.3416 6.4586 14.0602 6.19299C13.7787 5.92738 13.3971 5.77826 12.9993 5.77844C12.6015 5.77861 12.22 5.92806 11.9388 6.19392C11.6577 6.45977 11.4998 6.81894 11.5 7.19474ZM7.4626 7.41323C7.64627 7.41323 7.82242 7.34431 7.95229 7.22163C8.08216 7.09895 8.15513 6.93255 8.15513 6.75905C8.15513 6.58555 8.08216 6.41916 7.95229 6.29648C7.82242 6.17379 7.64627 6.10487 7.4626 6.10487C7.27894 6.10487 7.10279 6.17379 6.97292 6.29648C6.84305 6.41916 6.77008 6.58555 6.77008 6.75905C6.77008 6.93255 6.84305 7.09895 6.97292 7.22163C7.10279 7.34431 7.27894 7.41323 7.4626 7.41323ZM10.1177 4.14233C10.4148 4.15627 10.7117 4.11301 10.9904 4.0152C11.2692 3.91738 11.524 3.76705 11.7394 3.57333C11.9548 3.37961 12.1262 3.14656 12.2433 2.88832C12.3604 2.63008 12.4206 2.35205 12.4205 2.07113C12.4203 1.79021 12.3596 1.51226 12.2422 1.25416C12.1248 0.99606 11.953 0.763207 11.7374 0.569747C11.5218 0.376287 11.2668 0.226258 10.9878 0.128776C10.7089 0.0312939 10.412 -0.011606 10.115 0.00268264C9.55754 0.0354688 9.03434 0.267839 8.65202 0.652424C8.2697 1.03701 8.05704 1.54485 8.05739 2.07243C8.05775 2.60001 8.27109 3.1076 8.65392 3.49172C9.03676 3.87585 9.56027 4.1076 10.1177 4.13972V4.14233Z" fill="var(--fill-0, #194339)"/>
</svg>
