<svg preserveAspectRatio="none" width="100%" height="100%" overflow="visible" style="display: block;" viewBox="0 0 155.743 50" fill="none" xmlns="http://www.w3.org/2000/svg">
<g id="Group 69">
<path id="Vector" d="M12.4353 0C5.56804 0 0 5.56804 0 12.4353V37.5647C0 44.432 5.56804 50 12.4353 50H37.5647C44.432 50 50 44.432 50 37.5647V12.4379C50 5.57066 44.432 0.00261411 37.5647 0.00261411H12.4353V0Z" fill="var(--fill-0, #F5F5F0)"/>
<path id="Vector_2" d="M122.175 24.5073L123.053 22.335H119.535L118.675 24.5073H122.175Z" fill="var(--fill-0, #F5F5F0)"/>
<path id="Vector_3" d="M90.3719 32.7508L92.4789 27.5409H96.9987L97.7751 25.6274H93.2553L94.2539 23.1597H90.7327L89.7341 25.6274H87.8781L87.1017 27.5409H88.9603L86.8533 32.7508C86.2992 34.1128 87.5199 35.2185 89.5694 35.2185H93.0906L93.867 33.305H90.9549C90.5105 33.3024 90.2621 33.0462 90.3719 32.7508Z" fill="var(--fill-0, #F5F5F0)"/>
<path id="Vector_4" d="M114.464 35.2183H117.985L121.867 25.6272H118.346L114.464 35.2183Z" fill="var(--fill-0, #F5F5F0)"/>
<path id="Vector_5" d="M135.144 28.0921L133.259 32.7504C133.149 33.0458 132.65 33.302 132.205 33.302H126.41C125.966 33.302 125.717 33.0432 125.827 32.7504L127.712 28.0921C127.822 27.7784 128.295 27.5405 128.737 27.5405H134.532C134.979 27.5405 135.256 27.781 135.144 28.0921ZM135.92 25.627H128.906C126.854 25.627 124.747 26.7327 124.193 28.0947L122.308 32.753C121.754 34.115 122.975 35.2207 125.024 35.2207H132.038C134.09 35.2207 136.197 34.115 136.751 32.753L138.636 28.0947C139.193 26.7301 137.972 25.627 135.92 25.627Z" fill="var(--fill-0, #F5F5F0)"/>
<path id="Vector_6" d="M145.041 28.0921C145.15 27.7784 145.624 27.5405 146.068 27.5405H154.966L155.743 25.627H146.233C144.181 25.627 142.074 26.7327 141.519 28.0947L141.159 28.9416C140.633 30.3036 141.825 31.4094 143.875 31.4094H149.67C150.115 31.4094 150.392 31.6682 150.253 31.9609L149.947 32.753C149.838 33.0484 149.364 33.3046 148.92 33.3046H139.828L139.052 35.2181H148.755C150.807 35.2181 152.914 34.1123 153.469 32.7504L153.801 31.8851C154.355 30.5232 153.137 29.4174 151.084 29.4174H145.289C144.845 29.4174 144.596 29.1769 144.706 28.8841L145.041 28.0921Z" fill="var(--fill-0, #F5F5F0)"/>
<path id="Vector_7" d="M111.165 25.6262H105.592L103.519 26.7084H103.513L105.286 22.3298H101.765L96.552 35.2174H100.073L102.957 28.0913C103.066 27.7776 103.539 27.5397 103.981 27.5397H109.777C110.221 27.5397 110.498 27.7776 110.386 28.0913L107.502 35.2174H110.995L113.878 28.0913C114.438 26.7294 113.217 25.6262 111.165 25.6262Z" fill="var(--fill-0, #F5F5F0)"/>
<path id="Vector_8" d="M86.8252 24.5202L87.7114 22.3296H77.668C73.9638 22.3296 70.6282 24.5699 69.227 27.997L66.2783 35.2067L66.3306 35.2145H82.4936L83.3798 33.0239H71.219L72.4842 29.8765H82.9903L83.8765 27.6676H73.3678C74.1337 25.7671 75.9793 24.5228 78.0287 24.5228H86.8252V24.5202Z" fill="var(--fill-0, #F5F5F0)"/>
<path id="Vector_9" d="M124.781 41.5209H128.632L127.853 44.433C127.641 45.2146 126.839 45.8473 126.06 45.8473H121.66C120.878 45.8473 120.416 45.2146 120.627 44.433L121.851 39.8766C122.052 39.095 122.863 38.4624 123.644 38.4624H129.142L128.804 39.7172H123.54C123.37 39.7172 123.192 39.8531 123.15 40.0335L122.01 44.2736C121.958 44.4539 122.063 44.5899 122.233 44.5899H126.169C126.339 44.5899 126.517 44.4539 126.569 44.2736L126.969 42.7861H124.447L124.781 41.5209Z" fill="var(--fill-0, #F5F5F0)"/>
<path id="Vector_10" d="M133.667 40.3503L133.372 41.4483H131.557C131.388 41.4483 131.21 41.5868 131.168 41.7646L130.07 45.8478H128.732L130.209 40.3503H131.55L131.38 40.9725L132.172 40.3503H133.667Z" fill="var(--fill-0, #F5F5F0)"/>
<path id="Vector_11" d="M138.244 41.7614C138.286 41.581 138.181 41.4451 138.011 41.4451H135.808C135.638 41.4451 135.46 41.5836 135.418 41.7614L134.702 44.4304C134.66 44.6003 134.754 44.7467 134.924 44.7467H137.128C137.298 44.7467 137.486 44.5977 137.528 44.4304L138.244 41.7614ZM139.575 41.7614L138.856 44.4304C138.644 45.2094 137.844 45.8446 137.062 45.8446H134.393C133.612 45.8446 133.149 45.212 133.361 44.4304L134.077 41.7614C134.289 40.9798 135.089 40.3472 135.87 40.3472H138.539C139.321 40.3498 139.786 40.9824 139.575 41.7614Z" fill="var(--fill-0, #F5F5F0)"/>
<path id="Vector_12" d="M146.688 40.3503L145.211 45.8478H143.88L144.05 45.2152L143.248 45.8478H141.517C140.346 45.8478 139.883 45.2152 140.093 44.4336L141.19 40.3503H142.529L141.431 44.4336C141.389 44.6035 141.483 44.7499 141.653 44.7499H143.86C144.029 44.7499 144.218 44.6009 144.259 44.4336L145.357 40.3503H146.688Z" fill="var(--fill-0, #F5F5F0)"/>
<path id="Vector_13" d="M151.837 41.7622C151.879 41.5818 151.775 41.4459 151.605 41.4459H149.401C149.231 41.4459 149.053 41.5844 149.012 41.7622L148.295 44.4312C148.253 44.6011 148.348 44.7475 148.517 44.7475H150.721C150.891 44.7475 151.079 44.5985 151.121 44.4312L151.837 41.7622ZM153.165 41.7622L152.449 44.4312C152.237 45.2102 151.437 45.8454 150.656 45.8454H148.536L148.081 45.2128L147.406 47.7354H146.065L148.05 40.3506H149.388L149.221 40.9727L150.013 40.3506H152.133C152.912 40.3506 153.377 40.9832 153.165 41.7622Z" fill="var(--fill-0, #F5F5F0)"/>
<path id="Vector_14" d="M25.9215 36.376L25.8064 43.1178L29.1734 43.3034C30.9432 43.4002 32.4593 42.0434 32.5561 40.2737L32.7547 36.5015L25.9215 36.376Z" fill="var(--fill-0, #2E5A4F)"/>
<path id="Vector_15" d="M43.93 10.0798L35.1179 9.93077L34.961 19.2161L40.563 19.3102C42.3354 19.3389 43.7967 17.9273 43.8281 16.155L43.93 10.0798Z" fill="var(--fill-0, #2E5A4F)"/>
<path id="Vector_16" d="M35.4786 32.6115L29.7825 32.5148L29.9236 24.1261L38.8299 24.2777L38.741 29.4563C38.7123 31.2286 37.251 32.6429 35.4786 32.6115Z" fill="var(--fill-0, #2E5A4F)"/>
<path id="Vector_17" d="M9.69572 41.4209C7.24369 42.4979 4.93021 43.8546 2.8154 45.4728C3.23365 45.9799 3.69635 46.4478 4.19042 46.8765C6.0595 46.1681 8.10896 45.6009 10.3022 45.1303C14.8351 44.1605 19.9796 43.6115 25.3804 43.1148L25.498 36.3731C19.8881 37.7219 15.0233 39.2015 10.8773 40.9138C10.48 41.0811 10.0852 41.251 9.69572 41.4209Z" fill="var(--fill-0, #2E5A4F)"/>
<path id="Vector_18" d="M1.86912 44.1459C2.13314 44.5746 2.42331 44.9824 2.73961 45.3746C4.40219 43.7826 6.2582 42.2951 8.25799 40.9358C14.4508 36.7219 22.0056 33.7156 29.3564 32.5132L29.5002 24.1271C20.9625 27.0915 13.4208 32.0191 7.52866 37.7466C5.41907 39.7934 3.52385 41.9448 1.86912 44.1459Z" fill="var(--fill-0, #2E5A4F)"/>
<path id="Vector_19" d="M1.27831 43.076C1.41686 43.3636 1.57109 43.6459 1.73055 43.9204C9.22258 32.7111 23.1166 22.2625 34.5323 19.2171L34.6892 9.93177C21.6108 15.0528 8.4488 29.995 1.27831 43.076Z" fill="var(--fill-0, #2E5A4F)"/>
</g>
</svg>
