<svg preserveAspectRatio="none" width="100%" height="100%" overflow="visible" style="display: block;" viewBox="0 0 106 48" fill="none" xmlns="http://www.w3.org/2000/svg">
<g id="logo-new 1">
<path id="Vector" d="M86.69 15.1484H82.6875V33.2035H86.712V15.1484H86.69Z" fill="var(--fill-0, #010101)"/>
<path id="Vector_2" fill-rule="evenodd" clip-rule="evenodd" d="M19.0884 5.41699V21.7326H25.9059V15.1491H29.9303V21.7326V25.7619V33.2041H25.9059V25.7619H19.0884V33.2041H15.0859V25.7619V21.7326V5.41699H19.0884Z" fill="var(--fill-0, #010101)"/>
<path id="Vector_3" d="M37.7393 15.1484H33.7148V33.2035H37.7393V15.1484Z" fill="var(--fill-0, #010101)"/>
<path id="Vector_4" fill-rule="evenodd" clip-rule="evenodd" d="M41.2773 15.1484H45.3018L48.5346 26.2897L49.1504 28.4475C49.2823 28.976 49.4143 29.2402 49.5462 29.1961C49.7002 29.2402 49.8321 28.9539 49.9421 28.4475L50.5798 26.2897L53.7906 15.1484H57.8151L53.0429 30.5833L52.9329 30.9136L52.889 31.0457C52.757 31.4861 52.5151 31.9044 52.1852 32.2347C51.8773 32.5649 51.4815 32.8292 51.0417 33.0053C50.052 33.3136 48.9964 33.3136 48.0068 33.0053C47.567 32.8292 47.1711 32.5649 46.8632 32.2347C46.5554 31.9044 46.3134 31.4861 46.1595 31.0457L46.1155 30.9136L46.0056 30.5833L41.2773 15.1484Z" fill="var(--fill-0, #010101)"/>
<path id="Vector_5" d="M78.7979 5.41699H74.7734V33.2041H78.7979V5.41699Z" fill="var(--fill-0, #010101)"/>
<path id="Vector_6" fill-rule="evenodd" clip-rule="evenodd" d="M56.2969 33.2481H60.3214L61.4209 29.4389H67.7106L68.8102 33.2481H72.8126L68.0624 17.8353L67.9525 17.505L67.9085 17.3729C67.7765 16.9325 67.5346 16.5142 67.2048 16.1839C66.8749 15.8536 66.501 15.5894 66.0612 15.4132C65.5774 15.2151 65.0716 15.149 64.5438 15.171C64.038 15.149 63.5102 15.2371 63.0263 15.4132C62.5865 15.5894 62.1906 15.8536 61.8828 16.1839C61.5749 16.5142 61.333 16.9325 61.179 17.3729L61.135 17.505L61.0251 17.8353L56.2969 33.2481ZM62.5865 25.4316L63.5541 22.1288L64.1919 19.971C64.3019 19.4426 64.4338 19.1784 64.5877 19.2224C64.7197 19.1784 64.8516 19.4426 64.9836 19.971L65.5994 22.1288L66.567 25.4316H62.5865Z" fill="var(--fill-0, #010101)"/>
<path id="Vector_7" fill-rule="evenodd" clip-rule="evenodd" d="M94.6065 5.41699V22.3711L100.434 15.1051H105.602L98.8509 23.5161L105.778 33.1821H100.61L94.6065 24.7931V33.1821H90.582V5.41699H94.6065Z" fill="var(--fill-0, #010101)"/>
<path id="Vector_8" fill-rule="evenodd" clip-rule="evenodd" d="M104.044 7.15644C104.044 7.20048 104.044 7.24451 104.022 7.28855C104 7.33259 103.978 7.35461 103.956 7.39864C103.934 7.42066 103.89 7.44268 103.846 7.4647C103.802 7.48672 103.758 7.48672 103.714 7.48672H103.297V6.8702H103.714C103.758 6.8702 103.802 6.8702 103.846 6.89222C103.89 6.91424 103.934 6.93626 103.956 6.95828C103.978 6.98029 104.022 7.02433 104.022 7.06837C104.022 7.06837 104.044 7.1124 104.044 7.15644ZM104.572 8.76378L104.044 7.75094C104.176 7.7069 104.286 7.61883 104.352 7.50873C104.418 7.39864 104.462 7.26653 104.462 7.13442C104.462 7.04635 104.44 6.93626 104.418 6.84818C104.374 6.76011 104.33 6.67204 104.264 6.60598C104.198 6.53993 104.11 6.49589 104.022 6.45185C103.934 6.40782 103.824 6.40782 103.736 6.40782H102.835V8.74176H103.297V7.81699H103.626L104.088 8.74176H104.572V8.76378ZM103.604 5.41699C104.044 5.41699 104.462 5.5491 104.814 5.76929C105.166 6.01149 105.452 6.34176 105.628 6.73809C105.804 7.13442 105.848 7.57479 105.76 7.99314C105.672 8.41149 105.474 8.80782 105.166 9.11608C104.858 9.42433 104.484 9.6225 104.044 9.71057C103.626 9.79864 103.187 9.75461 102.791 9.57846C102.395 9.42433 102.043 9.13809 101.823 8.7858C101.581 8.43351 101.449 8.01516 101.449 7.57479C101.449 7.00231 101.669 6.45185 102.087 6.03351C102.483 5.65919 103.033 5.43901 103.604 5.41699Z" fill="var(--fill-0, #010101)"/>
<path id="Vector_9" fill-rule="evenodd" clip-rule="evenodd" d="M0.263749 30.1874C1.75918 30.6058 3.07869 30.914 4.6401 30.914C5.47578 30.914 6.37744 30.8259 7.03719 30.5177C7.34508 30.3856 7.60898 30.1434 7.78491 29.8571C7.96085 29.5709 8.04881 29.2186 8.02682 28.8883C8.02682 27.5012 6.17952 26.5324 4.77205 25.8058L4.24425 25.5195C3.27661 25.0131 2.28699 24.4406 1.51728 23.692C1.09943 23.2957 0.747566 22.8113 0.527649 22.2828C0.307732 21.7544 0.175781 21.1819 0.175781 20.6094C0.175781 18.7599 0.9235 17.4608 2.08906 16.5801C3.45255 15.5672 5.36583 15.1709 7.2791 15.1709C7.85089 15.1709 8.44466 15.2149 9.03844 15.259C9.63222 15.303 10.226 15.3911 10.7758 15.4792L11.1936 15.5452V17.8792L10.6658 17.8131C10.5559 17.7911 10.27 17.7691 9.98408 17.725C9.19238 17.6149 8.37869 17.5269 7.565 17.5048C6.77329 17.5048 5.84964 17.6149 5.25587 17.9892C5.03595 18.1214 4.88201 18.2975 4.75006 18.5177C4.61811 18.7379 4.57412 18.9801 4.59612 19.2223C4.61811 19.5966 4.79404 19.9709 5.07993 20.2351C5.56375 20.7415 6.13553 21.1599 6.77329 21.4681C7.05919 21.6223 7.34508 21.7764 7.65296 21.9305C10.0501 23.2076 12.7111 24.6168 12.7111 27.6993C12.7111 29.5929 11.9194 30.914 10.7318 31.7727C9.28035 32.8296 7.25711 33.2039 5.27786 33.2039C3.5845 33.2039 1.89113 32.9837 0.263749 32.5434V30.1874Z" fill="var(--fill-0, #010101)"/>
<path id="Vector_10" d="M0.683594 39.0381H1.7172C2.42094 39.0381 2.90476 39.2803 2.90476 39.8748C2.90476 40.0289 2.86078 40.2051 2.77281 40.3372C2.68484 40.4693 2.55289 40.5794 2.39895 40.6234V40.6454C2.59688 40.6674 2.7948 40.7555 2.90476 40.9096C3.03671 41.0638 3.10269 41.2619 3.10269 41.4601C3.10269 42.1427 2.57488 42.4729 1.78318 42.4729H0.683594V39.0381ZM1.62924 40.5133C2.22302 40.5133 2.46493 40.2931 2.46493 39.9408C2.46493 39.5445 2.20102 39.3904 1.65123 39.3904H1.12343V40.5133H1.62924ZM1.7172 42.1427C2.31098 42.1427 2.66285 41.9225 2.66285 41.4601C2.66285 41.0418 2.33298 40.8436 1.7172 40.8436H1.12343V42.1427H1.7172Z" fill="var(--fill-0, #010101)"/>
<path id="Vector_11" d="M4.83984 41.0638V39.0381H5.27968V41.0858C5.27968 41.9225 5.63155 42.1867 6.09337 42.1867C6.5552 42.1867 6.90706 41.9225 6.90706 41.0858V39.0381H7.32491V41.0638C7.32491 42.1867 6.79711 42.561 6.09337 42.561C5.38964 42.561 4.83984 42.1867 4.83984 41.0638Z" fill="var(--fill-0, #010101)"/>
<path id="Vector_12" d="M9.28125 39.0381H9.72108V42.495H9.28125V39.0381Z" fill="var(--fill-0, #010101)"/>
<path id="Vector_13" d="M11.7227 39.0381H12.1625V42.1207H13.6799V42.495H11.7227V39.0381Z" fill="var(--fill-0, #010101)"/>
<path id="Vector_14" d="M15.3281 39.0381H16.1858C17.2414 39.0381 17.8132 39.6546 17.8132 40.7555C17.8132 41.8564 17.2414 42.495 16.2078 42.495H15.3281V39.0381ZM16.1638 42.1427C16.9775 42.1427 17.3734 41.6363 17.3734 40.7555C17.3734 39.8748 16.9775 39.3904 16.1638 39.3904H15.768V42.1207H16.1638V42.1427Z" fill="var(--fill-0, #010101)"/>
<path id="Vector_15" d="M19.6172 39.0381H20.057V42.495H19.6172V39.0381Z" fill="var(--fill-0, #010101)"/>
<path id="Vector_16" d="M22.0586 39.0381H22.5204L23.7739 41.2179L24.1478 41.9225H24.1698C24.1478 41.5702 24.1258 41.1959 24.1258 40.8216V39.0381H24.5437V42.495H24.0818L22.8283 40.3152L22.4544 39.6106H22.4325C22.4544 39.9629 22.4984 40.3372 22.4984 40.6895V42.495H22.0806L22.0586 39.0381Z" fill="var(--fill-0, #010101)"/>
<path id="Vector_17" d="M26.3242 40.7776C26.3242 39.6547 26.984 38.9941 27.9076 38.9941C28.0836 38.9941 28.2815 39.0162 28.4574 39.1042C28.6333 39.1703 28.7873 39.2804 28.9192 39.4345L28.6773 39.7207C28.5894 39.6107 28.4794 39.5446 28.3475 39.4785C28.2155 39.4125 28.0836 39.3905 27.9516 39.3905C27.2479 39.3905 26.808 39.9189 26.808 40.7776C26.808 41.6363 27.2259 42.1868 27.9516 42.1868C28.1715 42.1868 28.3914 42.1207 28.5674 41.9886V41.0859H27.8416V40.7116H28.9852V42.1648C28.8533 42.2969 28.6773 42.407 28.5014 42.473C28.3255 42.5391 28.1275 42.5831 27.9296 42.5611C26.962 42.5611 26.3242 41.9006 26.3242 40.7776Z" fill="var(--fill-0, #010101)"/>
<path id="Vector_18" d="M32.9219 39.0381H33.3617V42.1207H34.8791V42.495H32.9439L32.9219 39.0381Z" fill="var(--fill-0, #010101)"/>
<path id="Vector_19" d="M37.2529 39.0381H37.7368L38.9243 42.495H38.4625L38.1326 41.4381H36.8791L36.5492 42.495H36.1094L37.2529 39.0381ZM36.989 41.0858H38.0227L37.8687 40.5574C37.7368 40.183 37.6268 39.7867 37.5168 39.3904H37.4949C37.3849 39.7867 37.2749 40.161 37.143 40.5574L36.989 41.0858Z" fill="var(--fill-0, #010101)"/>
<path id="Vector_20" d="M40.4648 39.0381H40.9267L42.1802 41.2179L42.5541 41.9225H42.576C42.5541 41.5702 42.5321 41.1959 42.5321 40.8216V39.0381H42.9499V42.495H42.4881L41.2346 40.3152L40.8607 39.6106H40.8387C40.8607 39.9629 40.9047 40.3372 40.9047 40.6895V42.495H40.4648V39.0381Z" fill="var(--fill-0, #010101)"/>
<path id="Vector_21" d="M44.9297 39.0381H45.7874C46.843 39.0381 47.4148 39.6546 47.4148 40.7555C47.4148 41.8564 46.843 42.495 45.8094 42.495H44.9297V39.0381ZM45.7654 42.1427C46.5791 42.1427 46.9749 41.6363 46.9749 40.7555C46.9749 39.8748 46.5791 39.3904 45.7654 39.3904H45.3695V42.1207H45.7654V42.1427Z" fill="var(--fill-0, #010101)"/>
<path id="Vector_22" d="M49.2188 39.0381H49.7465L50.4063 40.8876C50.4943 41.1298 50.5822 41.372 50.6482 41.6142H50.6702C50.7582 41.372 50.8241 41.1298 50.9121 40.8876L51.5719 39.0381H52.0997V42.495H51.6818V40.6014C51.6818 40.2931 51.7258 39.8748 51.7478 39.5885H51.7258L51.4619 40.3812L50.8022 42.1647H50.5163L49.8565 40.3812L49.5926 39.5885H49.5706C49.5926 39.8968 49.6146 40.3151 49.6146 40.6014V42.495H49.2188V39.0381Z" fill="var(--fill-0, #010101)"/>
<path id="Vector_23" d="M54.8037 39.0381H55.2875L56.4531 42.495H55.9913L55.6614 41.4381H54.4079L54.1 42.495H53.6602L54.8037 39.0381ZM54.5398 41.0858H55.5734L55.4195 40.5574C55.2875 40.183 55.1776 39.7867 55.0676 39.3904H55.0456C54.9357 39.7867 54.8257 40.161 54.6938 40.5574L54.5398 41.0858Z" fill="var(--fill-0, #010101)"/>
<path id="Vector_24" d="M58.0156 39.0381H59.0932C59.797 39.0381 60.3028 39.3023 60.3028 40.0069C60.3248 40.2271 60.2368 40.4693 60.1048 40.6454C59.9509 40.8216 59.753 40.9537 59.5331 40.9977L60.4127 42.495H59.9289L59.0932 41.0418H58.4555V42.495H58.0156V39.0381ZM59.0272 40.6674C59.555 40.6674 59.8629 40.4473 59.8629 40.0069C59.8629 39.5665 59.555 39.3904 59.0272 39.3904H58.4555V40.6674H59.0272Z" fill="var(--fill-0, #010101)"/>
<path id="Vector_25" d="M62.0625 39.0381H62.5023V40.7775H62.5243L63.9538 39.0381H64.4376L63.36 40.3592L64.6135 42.495H64.1297L63.0961 40.6895L62.5023 41.394V42.495H62.0625V39.0381Z" fill="var(--fill-0, #010101)"/>
<path id="Vector_26" d="M65.8633 42.0548L66.1272 41.7465C66.2591 41.8786 66.3911 41.9887 66.567 42.0548C66.721 42.1208 66.9189 42.1649 67.0948 42.1869C67.5347 42.1869 67.8205 41.9667 67.8205 41.6144C67.8205 41.2621 67.5786 41.152 67.2488 40.9979L66.7649 40.7777C66.4351 40.6456 66.0612 40.3814 66.0612 39.875C66.0612 39.3685 66.523 38.9502 67.1388 38.9502C67.3367 38.9502 67.5127 38.9942 67.6886 39.0603C67.8645 39.1263 68.0185 39.2364 68.1504 39.3685L67.9085 39.6548C67.7985 39.5447 67.6886 39.4786 67.5566 39.4126C67.4247 39.3465 67.2707 39.3245 67.1388 39.3245C66.7649 39.3245 66.501 39.5227 66.501 39.8309C66.501 40.1392 66.8089 40.2933 67.0728 40.4034L67.5566 40.6236C67.9525 40.7997 68.2604 41.0419 68.2604 41.5484C68.2604 42.0988 67.8205 42.5392 67.0948 42.5392C66.8749 42.5392 66.633 42.4952 66.4351 42.4071C66.2151 42.341 66.0172 42.2089 65.8633 42.0548Z" fill="var(--fill-0, #010101)"/>
<path id="Vector_27" d="M71.8242 42.0548L72.0881 41.7465C72.2201 41.8786 72.352 41.9887 72.5279 42.0548C72.6819 42.1208 72.8578 42.1649 73.0558 42.1869C73.5176 42.1869 73.7815 41.9667 73.7815 41.6144C73.7815 41.2621 73.5396 41.152 73.2097 40.9979L72.7259 40.7777C72.396 40.6456 72.0221 40.3814 72.0221 39.875C72.0221 39.3685 72.484 38.9502 73.0997 38.9502C73.2977 38.9502 73.4736 38.9942 73.6495 39.0603C73.8255 39.1263 73.9794 39.2364 74.1114 39.3685L73.8694 39.6548C73.7595 39.5447 73.6495 39.4786 73.5176 39.4126C73.3856 39.3465 73.2317 39.3245 73.0997 39.3245C72.7039 39.3245 72.462 39.5227 72.462 39.8309C72.462 40.1392 72.7699 40.2933 73.0338 40.4034L73.5176 40.6236C73.9134 40.7997 74.2213 41.0419 74.2213 41.5484C74.2213 42.0988 73.7815 42.5392 73.0558 42.5392C72.8358 42.5392 72.5939 42.4952 72.396 42.4071C72.1761 42.341 72.0002 42.2089 71.8242 42.0548Z" fill="var(--fill-0, #010101)"/>
<path id="Vector_28" d="M75.9609 39.0381H76.4008V42.495H75.9609V39.0381Z" fill="var(--fill-0, #010101)"/>
<path id="Vector_29" d="M78.4023 39.0381H78.8422L80.0957 41.2179L80.4696 41.9225H80.4916C80.4696 41.5702 80.4476 41.1959 80.4476 40.8216V39.0381H80.8654V42.495H80.4036L79.1501 40.3152L78.7762 39.6106H78.7542C78.7762 39.9629 78.8202 40.3372 78.8202 40.6895V42.495H78.4023V39.0381Z" fill="var(--fill-0, #010101)"/>
<path id="Vector_30" d="M82.6445 40.7776C82.6445 39.6547 83.3043 38.9941 84.184 38.9941C84.3599 38.9941 84.5358 39.0382 84.7118 39.1042C84.8657 39.1703 85.0196 39.2804 85.1296 39.4125L84.8877 39.6987C84.7997 39.5886 84.6898 39.5226 84.5798 39.4565C84.4479 39.3905 84.3159 39.3685 84.184 39.3685C83.5242 39.3685 83.1064 39.8969 83.1064 40.7556C83.1064 41.6143 83.5242 42.1648 84.184 42.1648C84.3379 42.1648 84.4918 42.1428 84.6238 42.0767C84.7557 42.0107 84.8877 41.9226 84.9757 41.7905L85.2176 42.0547C85.0856 42.2088 84.9317 42.3409 84.7557 42.429C84.5798 42.5171 84.3819 42.5611 84.162 42.5611C83.2823 42.5611 82.6445 41.9006 82.6445 40.7776Z" fill="var(--fill-0, #010101)"/>
<path id="Vector_31" d="M86.9102 39.0381H88.9114V39.4124H87.35V40.4913H88.6695V40.8656H87.35V42.1207H88.9554V42.495H86.9102V39.0381Z" fill="var(--fill-0, #010101)"/>
<path id="Vector_32" d="M92.7812 42.1429H93.551V39.6769H92.9352V39.3906C93.1771 39.3466 93.419 39.2805 93.6389 39.1484H93.9688V42.1429H94.6725V42.4952H92.7812V42.1429Z" fill="var(--fill-0, #010101)"/>
<path id="Vector_33" d="M96.3018 42.2096L96.5437 41.9454C96.6097 42.0335 96.6976 42.0995 96.7856 42.1436C96.8736 42.1876 96.9835 42.2096 97.0935 42.2096C97.5773 42.2096 97.9732 41.8353 97.9952 40.7564C97.9072 40.8885 97.7972 40.9986 97.6433 41.0647C97.5113 41.1307 97.3574 41.1748 97.2035 41.1968C96.6317 41.1968 96.2578 40.8445 96.2578 40.1619C96.2578 40.0298 96.2578 39.8977 96.3238 39.7656C96.3678 39.6335 96.4337 39.5234 96.5437 39.4133C96.6317 39.3032 96.7416 39.2371 96.8736 39.1711C97.0055 39.105 97.1375 39.083 97.2694 39.083C97.9292 39.083 98.435 39.6114 98.435 40.6903C98.435 42.0335 97.8192 42.5619 97.1595 42.5619C97.0055 42.5619 96.8516 42.5399 96.7196 42.4738C96.5217 42.4078 96.4118 42.3197 96.3018 42.2096ZM97.9732 40.4041C97.9072 39.7436 97.6653 39.4133 97.2254 39.4133C96.8956 39.4133 96.6317 39.6995 96.6317 40.1619C96.6317 40.6243 96.8296 40.8665 97.2474 40.8665C97.4014 40.8445 97.5333 40.8004 97.6653 40.7344C97.7972 40.6463 97.9072 40.5362 97.9732 40.4041Z" fill="var(--fill-0, #010101)"/>
<path id="Vector_34" d="M99.9761 42.2096L100.218 41.9454C100.284 42.0335 100.372 42.0995 100.46 42.1436C100.548 42.1876 100.658 42.2096 100.768 42.2096C101.252 42.2096 101.648 41.8353 101.648 40.7564C101.56 40.8885 101.45 40.9986 101.296 41.0647C101.164 41.1307 101.01 41.1748 100.856 41.1968C100.284 41.1968 99.9102 40.8445 99.9102 40.1619C99.9102 40.0298 99.9102 39.8977 99.9761 39.7656C100.02 39.6335 100.086 39.5234 100.174 39.4133C100.262 39.3032 100.372 39.2371 100.504 39.1711C100.636 39.105 100.768 39.083 100.9 39.083C101.56 39.083 102.065 39.6114 102.065 40.6903C102.065 42.0335 101.45 42.5619 100.79 42.5619C100.636 42.5619 100.482 42.5399 100.35 42.4738C100.196 42.4078 100.086 42.3197 99.9761 42.2096ZM101.648 40.4041C101.582 39.7436 101.34 39.4133 100.9 39.4133C100.57 39.4133 100.306 39.6995 100.306 40.1619C100.306 40.6243 100.504 40.8665 100.922 40.8665C101.076 40.8445 101.208 40.8004 101.34 40.7344C101.472 40.6463 101.582 40.5362 101.648 40.4041Z" fill="var(--fill-0, #010101)"/>
<path id="Vector_35" d="M103.582 41.6367C103.604 41.4385 103.67 41.2624 103.78 41.0862C103.89 40.9321 104.044 40.8 104.22 40.7119V40.6899C104.088 40.6018 103.978 40.4917 103.89 40.3596C103.802 40.2275 103.758 40.0734 103.758 39.9193C103.758 39.4128 104.176 39.0605 104.704 39.0605C104.836 39.0605 104.946 39.0605 105.055 39.1046C105.165 39.1486 105.275 39.2147 105.363 39.3028C105.451 39.3908 105.517 39.4789 105.561 39.611C105.605 39.7211 105.627 39.8532 105.627 39.9633C105.605 40.1174 105.561 40.2716 105.495 40.4257C105.407 40.5578 105.297 40.6899 105.165 40.778V40.8C105.473 40.9761 105.759 41.2183 105.759 41.6587C105.759 42.1651 105.319 42.5615 104.682 42.5615C104.044 42.5615 103.582 42.1651 103.582 41.6367ZM105.341 41.6367C105.341 41.1963 104.924 41.0422 104.44 40.844C104.308 40.9101 104.198 41.0202 104.11 41.1523C104.022 41.2844 103.978 41.4165 103.978 41.5706C103.978 41.6587 104 41.7468 104.044 41.8349C104.088 41.9229 104.132 41.989 104.198 42.055C104.264 42.1211 104.352 42.1651 104.44 42.1872C104.528 42.2092 104.616 42.2312 104.704 42.2092C104.792 42.2092 104.88 42.2092 104.946 42.1872C105.033 42.1651 105.099 42.1211 105.165 42.0771C105.231 42.033 105.275 41.945 105.319 41.8789C105.341 41.8128 105.363 41.7248 105.341 41.6367ZM105.275 39.9853C105.275 39.8972 105.275 39.8312 105.231 39.7651C105.209 39.6991 105.165 39.633 105.099 39.567C105.055 39.5009 104.968 39.4569 104.902 39.4349C104.836 39.4128 104.748 39.3908 104.682 39.3908C104.616 39.3908 104.528 39.3908 104.462 39.4349C104.396 39.4569 104.33 39.5009 104.286 39.545C104.242 39.589 104.198 39.655 104.176 39.7211C104.154 39.7872 104.132 39.8532 104.132 39.9413C104.132 40.3376 104.506 40.5138 104.902 40.6679C105.011 40.5798 105.099 40.4917 105.165 40.3816C105.231 40.2716 105.275 40.1174 105.275 39.9853Z" fill="var(--fill-0, #010101)"/>
</g>
</svg>
